<?xml version="1.0" encoding="UTF-8"?>
<!DOCTYPE svg PUBLIC "-//W3C//DTD SVG 1.1//EN" "http://www.w3.org/Graphics/SVG/1.1/DTD/svg11.dtd">
<!-- Creator: CorelDRAW X7 -->
<svg xmlns="http://www.w3.org/2000/svg" xml:space="preserve" width="13.8995mm" height="15.9979mm" version="1.1" style="shape-rendering:geometricPrecision; text-rendering:geometricPrecision; image-rendering:optimizeQuality; fill-rule:evenodd; clip-rule:evenodd"
viewBox="0 0 443 510"
 xmlns:xlink="http://www.w3.org/1999/xlink">
 <defs>
  <style type="text/css">
   <![CDATA[
    .str0 {stroke:#332C2B;stroke-width:2.42904}
    .fil0 {fill:none}
   ]]>
  </style>
 </defs>
 <g id="图层_x0020_1">
  <metadata id="CorelCorpID_0Corel-Layer"/>
  <path class="fil0 str0" d="M96 53c-18,0 -27,0 -46,-4 -7,-1 -27,-7 -31,-8 -10,89 -18,131 -18,224 0,11 2,45 6,52 2,6 8,13 11,18 18,27 26,35 45,58 9,12 34,35 47,46l12 10c22,18 34,26 61,42 6,3 34,19 40,18 6,-2 32,-16 39,-20 13,-7 24,-15 36,-22 3,-2 5,-4 8,-6 12,-9 29,-23 39,-34 5,-4 11,-9 16,-14 14,-15 41,-45 53,-63 5,-7 21,-28 23,-36 13,-49 -4,-203 -11,-256 -1,-5 0,-12 -5,-14 -3,-2 -20,4 -29,5 -52,11 -102,1 -146,-28 -5,-3 -9,-5 -13,-9 -4,-3 -10,-9 -12,-11 -31,32 -80,52 -125,52z"/>
 </g>
</svg>
