<?xml version="1.0" encoding="UTF-8"?>
<!DOCTYPE svg PUBLIC "-//W3C//DTD SVG 1.1//EN" "http://www.w3.org/Graphics/SVG/1.1/DTD/svg11.dtd">
<!-- Creator: CorelDRAW X7 -->
<svg xmlns="http://www.w3.org/2000/svg" xml:space="preserve" width="17.3419mm" height="17.3387mm" version="1.1" style="shape-rendering:geometricPrecision; text-rendering:geometricPrecision; image-rendering:optimizeQuality; fill-rule:evenodd; clip-rule:evenodd"
viewBox="0 0 164 164"
 xmlns:xlink="http://www.w3.org/1999/xlink">
 <defs>
  <style type="text/css">
   <![CDATA[
    .str0 {stroke:#332C2B;stroke-width:0.719138}
    .fil0 {fill:none;fill-rule:nonzero}
   ]]>
  </style>
 </defs>
 <g id="图层_x0020_2">
  <metadata id="CorelCorpID_0Corel-Layer"/>
  <path class="fil0 str0" d="M153 82l0 0 0 0c-1,-1 -2,-2 -2,-3 0,-3 2,-3 5,-3 2,0 5,1 7,1l0 1c0,0 0,-1 0,-2 0,-1 0,-2 0,-4 -1,-2 -1,-5 -1,-5 0,0 -2,0 -4,-1 -2,-1 -5,-2 -7,-3 0,0 0,0 0,0 -2,0 -3,-1 -3,-2 -1,-2 1,-3 4,-4 2,0 5,0 7,0l1 0c0,0 -1,-3 -2,-5 -1,-1 -1,-2 -1,-2 0,-1 -1,-1 -1,-2 0,-1 -1,-1 -1,-1 0,0 -1,0 -4,0 -1,0 -2,0 -3,0 -2,-1 -3,-1 -4,-1 0,0 0,0 0,0l0 0c-2,0 -3,-1 -4,-2 -1,-1 1,-3 3,-4 2,-1 5,-2 7,-2l0 0c0,0 0,-1 -1,-2 0,-1 -1,-2 -2,-3 -1,-1 -1,-2 -2,-3 -1,-1 -1,-1 -1,-1 0,0 -2,0 -4,1 -2,0 -5,1 -7,1 0,0 -1,0 -1,0 0,0 0,0 -1,0 -1,0 -2,0 -3,0 -1,-2 0,-4 2,-6 2,-1 5,-3 6,-3l1 -1c0,0 -1,0 -2,-1 0,0 -1,-1 -3,-2 -2,-2 -4,-3 -4,-3 0,0 -1,0 -3,2 -3,1 -5,2 -7,3 0,0 0,0 0,0l-1 0c0,0 -1,0 -2,0 0,1 -1,0 -1,0 -2,-1 -2,-3 0,-5 1,-2 3,-4 4,-5l1 -1c0,0 -2,-1 -5,-2 -1,-1 -2,-1 -3,-1 -1,-1 -2,-1 -2,-1 0,0 -1,1 -3,3 -1,1 -4,3 -5,5l0 0c-1,0 -1,0 -1,0l0 0c-1,1 -2,1 -3,1 -1,0 -2,-1 -2,-2 0,-1 0,-2 0,-3 1,-3 3,-5 4,-6l0 -1c0,0 -1,0 -2,0 -1,0 -2,-1 -3,-1 -2,0 -3,0 -4,0 -1,0 -2,-1 -2,-1 0,0 -1,2 -2,4 -1,2 -3,4 -4,6l0 0 0 0c-1,2 -2,3 -3,3 -3,0 -3,-3 -3,-5 0,-3 1,-6 1,-7l1 -1c0,0 -1,0 -2,0 -1,1 -2,1 -4,1 -2,0 -5,1 -5,1 0,0 0,1 -1,3 -1,3 -2,5 -3,8l0 0c0,0 0,0 0,0l0 0c0,1 -1,2 -2,3 -2,0 -3,-2 -4,-4 0,-3 0,-6 0,-7l0 -1c0,0 -3,1 -5,2 -1,0 -2,0 -2,1 -1,0 -1,0 -2,0 -1,1 -1,1 -1,1 0,0 0,2 0,4 0,1 0,3 0,4 -1,1 -1,3 -1,4 0,0 0,0 0,0l0 0c0,2 -1,3 -2,4 -1,1 -3,-1 -4,-3 -1,-3 -2,-6 -2,-7l0 -1c0,0 -1,1 -2,1 -1,1 -2,2 -3,2 -1,1 -2,2 -3,3 -1,0 -1,1 -1,1 0,0 0,1 1,4 0,2 1,5 1,7 0,0 0,0 0,0 0,1 0,1 0,1 0,2 0,3 0,3 -2,2 -4,1 -6,-1 -1,-2 -3,-5 -3,-6l-1 -1c0,0 0,1 -1,1 0,1 -1,2 -2,3 -2,2 -3,5 -3,5 0,0 0,1 2,3 1,2 2,5 3,7l0 0c0,0 0,0 0,0 0,1 0,2 0,2 1,1 0,2 0,2 -1,2 -3,1 -5,0 -2,-2 -4,-4 -5,-5l-1 0c0,0 -1,2 -2,4 -1,2 -1,3 -1,4 -1,1 -1,2 -1,2 0,0 1,1 3,2 1,2 3,4 5,6l0 0c0,0 0,0 0,0 1,1 1,3 1,3 0,1 0,1 0,1 0,1 -1,2 -2,2 -1,0 -2,0 -3,-1 -3,-1 -5,-2 -6,-3l-1 0c0,0 0,0 0,1 0,1 -1,3 -1,4 0,1 0,3 0,4 0,1 0,1 0,1 0,0 1,1 3,2 2,2 4,3 6,5l0 0c2,1 3,2 3,3 0,2 -3,3 -5,3 -3,-1 -6,-1 -7,-2l-1 0c0,0 0,0 0,2 1,1 1,2 1,3 0,3 1,6 1,6 0,0 1,0 3,1 3,0 5,1 8,2l0 0c0,0 0,0 0,0l0 0c1,1 2,2 3,3 0,2 -2,3 -4,4 -3,0 -6,0 -7,0l-1 0c0,0 1,2 2,5 0,1 0,1 1,2 0,0 0,1 0,1 1,1 1,2 1,2 0,0 2,0 4,0 1,0 3,0 4,0 1,0 3,0 4,0l0 0c0,0 0,0 0,0 2,1 3,1 4,2 1,2 -1,4 -3,5 -3,1 -6,2 -7,2l-1 0c0,0 1,1 1,1 1,1 2,2 2,3 1,2 2,3 3,3 0,1 1,2 1,2 0,0 1,-1 4,-1 2,-1 5,-1 7,-2l0 0c0,0 0,0 0,0 1,0 1,0 1,0 2,0 3,0 3,1 2,1 1,3 -1,5 -2,2 -5,3 -6,4l-1 0c0,0 1,1 1,1 1,1 2,2 3,3 2,1 5,3 5,3 0,0 1,-1 3,-2 2,-1 5,-2 7,-3l0 0c0,0 0,0 0,0 1,-1 2,-1 2,-1 1,0 2,0 2,0 2,1 1,4 0,6 -2,2 -4,4 -5,5l0 0c0,0 2,2 4,3 2,0 3,1 4,1 1,0 2,1 2,1 0,0 1,-2 2,-3 2,-2 4,-4 6,-5 0,0 0,0 0,0 1,-1 3,-2 3,-2 1,0 1,0 1,1 1,0 2,0 2,1 0,1 0,3 -1,4 -1,2 -2,5 -3,6l0 1c0,0 0,0 1,0 1,0 3,0 4,0 1,1 3,1 4,1 1,0 1,0 1,0 0,0 1,-1 2,-3 2,-2 3,-5 5,-7l0 0 0 0c1,-1 2,-2 3,-2 2,0 3,2 3,5 -1,2 -1,5 -2,7l0 0c0,0 0,0 2,0 1,0 2,0 3,0 3,-1 6,-1 6,-1 0,0 0,-2 1,-4 0,-2 1,-5 2,-7 0,0 0,0 0,0 1,-2 2,-3 3,-3 2,-1 3,1 4,4 0,2 0,5 0,7l0 1c0,0 2,-1 5,-2 1,-1 1,-1 2,-1 0,0 1,-1 1,-1 1,0 2,-1 2,-1 0,0 0,-1 0,-4 0,-1 0,-2 0,-3 0,-2 0,-3 0,-4 0,0 0,0 1,0l-1 0c1,-2 1,-3 2,-4 2,-1 4,1 5,3 1,2 2,5 2,7l0 0c0,0 1,0 1,-1 1,0 2,-1 3,-2 2,-1 3,-1 3,-2 1,-1 2,-1 2,-1 0,0 -1,-2 -1,-4 -1,-2 -1,-5 -2,-7l0 0c0,0 0,-1 0,-1 0,-1 0,-3 1,-4 1,-1 3,0 5,2 2,2 3,5 4,6l0 1c0,0 1,-1 1,-2 1,0 2,-1 3,-3 1,-2 3,-4 3,-4 0,0 -1,-1 -2,-3 -1,-3 -2,-5 -3,-7l0 0c0,0 0,0 0,-1l0 0c-1,0 -1,-1 -1,-2 0,0 0,-1 0,-1 1,-2 4,-2 6,0 2,1 4,3 5,4l0 1c0,0 2,-2 3,-5 0,-1 1,-2 1,-3 0,-1 1,-2 1,-2 0,0 -2,-1 -3,-3 -2,-1 -4,-4 -5,-5 0,-1 0,-1 0,-1l0 0c-1,-1 -2,-2 -1,-3 0,-1 0,-2 1,-2 1,0 3,0 4,0 2,1 5,3 6,4l1 0c0,0 0,-1 0,-2 0,-1 0,-2 0,-3 1,-2 1,-3 1,-4 0,-1 0,-2 0,-2 0,0 -1,-1 -3,-2 -2,-1 -5,-3 -7,-4zm-6 3l0 0c0,0 0,1 0,2 0,1 0,1 0,2 0,0 0,1 0,1 0,1 0,3 -1,4 0,0 0,0 0,1 0,0 0,1 0,1 0,2 -1,3 -1,3 0,0 0,1 0,2 -1,2 -2,4 -2,6 -1,2 -2,4 -3,5 0,1 -1,2 -1,2 0,0 0,1 0,1 0,0 -1,1 -2,2 0,1 -2,3 -3,5 -1,2 -3,3 -4,4 -1,1 -2,2 -2,2 0,0 -1,1 -2,2 -1,1 -2,3 -4,4 -2,1 -4,3 -5,3 -1,1 -2,2 -2,2 0,0 -1,0 -1,0 0,0 -1,1 -2,1 -1,1 -3,2 -5,3 -2,0 -4,1 -6,2 -1,0 -2,0 -2,0 0,0 -1,1 -3,1 0,0 -1,0 -1,0 0,0 -1,0 -1,0 -1,1 -3,1 -4,1 0,0 -1,0 -1,0 -1,0 -1,0 -2,0 -1,0 -2,0 -2,0 -2,0 -3,1 -3,1 0,0 -1,-1 -3,-1 -1,0 -2,0 -3,0 0,0 -1,0 -1,0 -1,0 -1,0 -2,0 -1,0 -2,0 -3,-1 0,0 -1,0 -1,0 -1,0 -1,0 -2,0 -1,0 -2,-1 -2,-1 0,0 -1,0 -3,0 -1,-1 -3,-2 -5,-2 -2,-1 -4,-2 -6,-3 0,0 -1,-1 -1,-1 -1,0 -1,0 -1,0 0,0 -1,-1 -2,-2 -2,0 -3,-2 -5,-3 -2,-1 -3,-3 -5,-4 -1,-1 -2,-2 -2,-2 0,0 0,-1 -1,-2 -2,-1 -3,-2 -4,-4 -2,-2 -3,-4 -4,-5 -1,-1 -1,-2 -1,-2 0,0 0,-1 0,-1 -1,0 -1,-1 -1,-2 -1,-1 -2,-3 -3,-5 -1,-2 -1,-4 -2,-6 0,-1 -1,-2 -1,-2 0,0 0,-1 0,-3 0,0 0,-1 -1,-1 0,-1 0,-1 0,-1 0,-1 0,-3 0,-4 0,0 0,-1 -1,-1 0,-1 0,-1 0,-2 0,-1 0,-2 0,-2 0,-2 0,-3 0,-3 0,0 0,-1 0,-3 0,-1 0,-2 0,-3 0,0 0,-1 0,-1 1,-1 1,-1 1,-2 0,-1 0,-2 0,-3 0,0 0,-1 0,-1 1,-1 1,-1 1,-2 0,-1 0,-2 0,-2 0,0 1,-1 1,-3 1,-1 1,-3 2,-5 1,-2 2,-4 3,-6 0,0 0,-1 1,-1 0,-1 0,-1 0,-1 0,0 0,-1 1,-2 1,-2 2,-3 4,-5 1,-2 2,-3 4,-5 1,-1 1,-2 1,-2 0,0 1,0 2,-1 2,-2 3,-3 5,-4 2,-2 3,-3 5,-4 1,-1 2,-1 2,-1 0,0 0,0 1,0 0,-1 1,-1 1,-1 2,-1 4,-2 6,-3 2,-1 4,-1 5,-2 2,0 3,-1 3,-1 0,0 1,0 2,0 1,0 1,-1 2,-1 0,0 1,0 1,0 1,0 2,0 3,0 1,0 1,0 2,-1 0,0 1,0 1,0 1,0 2,0 3,0 2,0 3,0 3,0 0,0 1,0 3,0 0,0 1,0 2,0 1,0 1,0 2,0 0,1 1,1 1,1 1,0 3,0 4,0 0,0 1,0 1,0 0,0 1,1 1,1 2,0 3,0 3,0 0,0 1,1 2,1 2,1 4,1 6,2 2,1 4,2 5,3 1,0 2,0 2,1 0,0 1,0 1,0 0,0 1,0 2,1 1,1 3,2 5,4 2,1 3,2 4,4 1,1 2,1 2,1 0,0 1,1 2,2 1,2 3,3 4,5 1,2 3,3 3,5 1,1 2,2 2,2 0,0 0,0 0,1 0,0 1,1 1,1 1,2 2,4 3,6 0,2 1,4 2,5 0,2 0,3 0,3 0,0 1,1 1,2 0,1 0,1 0,2 0,0 0,1 0,1 1,1 1,2 1,3 0,1 0,1 0,2 0,0 0,1 0,1 0,1 0,2 0,3 0,2 1,3 1,3 0,0 -1,1 -1,3z"/>
 </g>
</svg>
