<?xml version="1.0" encoding="UTF-8"?>
<!DOCTYPE svg PUBLIC "-//W3C//DTD SVG 1.1//EN" "http://www.w3.org/Graphics/SVG/1.1/DTD/svg11.dtd">
<!-- Creator: CorelDRAW X7 -->
<svg xmlns="http://www.w3.org/2000/svg" xml:space="preserve" width="16.02mm" height="15.9678mm" version="1.1" style="shape-rendering:geometricPrecision; text-rendering:geometricPrecision; image-rendering:optimizeQuality; fill-rule:evenodd; clip-rule:evenodd"
viewBox="0 0 183 182"
 xmlns:xlink="http://www.w3.org/1999/xlink">
 <defs>
  <style type="text/css">
   <![CDATA[
    .str0 {stroke:#332C2B;stroke-width:0.870816}
    .fil0 {fill:none;fill-rule:nonzero}
   ]]>
  </style>
 </defs>
 <g id="图层_x0020_2">
  <metadata id="CorelCorpID_0Corel-Layer"/>
  <g id="_1176719408">
   <path class="fil0 str0" d="M94 9l10 -8c1,-1 4,-1 5,1l7 11c1,1 3,2 4,1l12 -4c2,-1 4,0 5,2l3 13c0,1 2,2 3,3l13 0c2,0 4,1 4,3l-1 13c0,2 1,3 2,4l12 4c2,1 3,3 2,5l-5 11c0,2 0,4 1,5l10 8c2,1 2,3 1,5l-9 9c-1,1 -1,3 0,5l7 10c1,2 0,4 -2,5l-11 6c-1,1 -2,3 -2,4l4 13c0,2 -1,4 -3,4l-13 2c-1,1 -3,2 -3,4l-1 12c0,2 -2,4 -4,3l-13 -2c-1,0 -3,1 -3,3l-6 11c-1,2 -3,3 -5,2l-11 -6c-1,-1 -3,-1 -4,1l-9 9c-1,1 -4,1 -5,0l-9 -9c-1,-2 -3,-2 -4,-1l-11 6c-2,1 -4,0 -5,-2l-5 -11c-1,-2 -3,-3 -4,-3l-13 2c-2,1 -4,-1 -4,-3l-1 -12c0,-2 -1,-3 -3,-4l-13 -2c-2,0 -3,-2 -2,-4l3 -13c0,-1 -1,-3 -2,-4l-11 -6c-2,-1 -3,-3 -2,-5l7 -10c1,-2 1,-4 0,-5l-9 -9c-1,-2 -1,-4 1,-5l10 -8c1,-1 2,-3 1,-5l-5 -11c-1,-2 0,-4 2,-5l12 -4c1,-1 2,-2 2,-4l-1 -13c0,-2 2,-3 4,-3l13 0c1,-1 3,-2 3,-3l3 -13c1,-2 3,-3 5,-2l12 4c1,1 3,0 4,-1l7 -11c1,-2 4,-2 5,-1l10 8c2,1 3,1 5,0z"/>
  </g>
 </g>
</svg>
