<?xml version="1.0" encoding="UTF-8"?>
<!DOCTYPE svg PUBLIC "-//W3C//DTD SVG 1.1//EN" "http://www.w3.org/Graphics/SVG/1.1/DTD/svg11.dtd">
<!-- Creator: CorelDRAW X7 -->
<svg xmlns="http://www.w3.org/2000/svg" xml:space="preserve" width="16.3932mm" height="16.3522mm" version="1.1" style="shape-rendering:geometricPrecision; text-rendering:geometricPrecision; image-rendering:optimizeQuality; fill-rule:evenodd; clip-rule:evenodd"
viewBox="0 0 283 282"
 xmlns:xlink="http://www.w3.org/1999/xlink">
 <defs>
  <style type="text/css">
   <![CDATA[
    .str0 {stroke:#332C2B;stroke-width:1.31359}
    .fil0 {fill:none}
   ]]>
  </style>
 </defs>
 <g id="图层_x0020_1">
  <metadata id="CorelCorpID_0Corel-Layer"/>
  <path class="fil0 str0" d="M132 20c26,-2 52,5 73,18 7,5 11,8 17,13 5,5 10,10 15,16 25,32 32,79 17,117 -9,23 -24,41 -43,56 -17,11 -39,20 -61,21 -28,2 -50,-5 -72,-18l-9 -6c-8,-5 -18,-15 -23,-22 -14,-19 -23,-40 -25,-65 -3,-45 19,-88 55,-111 17,-10 34,-17 56,-19zm104 17l-16 3 -2 -17 -16 5 -4 -16 -15 8c-2,-3 -5,-13 -7,-15 -3,1 -11,9 -14,10l-9 -14c-2,1 -1,0 -2,1 -3,3 -6,8 -9,11 -3,-1 -5,-4 -7,-6 -1,-1 -1,-2 -3,-3 -2,-3 -1,-2 -3,-3 -1,3 -7,10 -9,14 -3,-2 -11,-9 -13,-10l-6 13c-1,1 -1,1 -1,2 -5,-2 -11,-6 -15,-8l-5 17 -16 -6 -1 17 -17 -3 1 17 -17 1c1,4 4,13 4,16l-16 3 6 15c-3,2 -13,4 -16,6 2,3 8,11 9,15l-14 7 11 13 -13 10c1,2 0,1 1,2l12 9c-1,2 -5,6 -6,7 -2,2 -3,3 -5,6l7 4c2,1 6,3 7,4 -1,3 -3,5 -4,7 -2,3 -4,5 -5,8l16 5 -6 16 16 3 -4 16 17 0 -1 17 17 -2 1 16c3,0 13,-4 16,-5 1,3 4,15 5,16l15 -7c1,1 5,12 7,15 2,-1 10,-8 13,-10 2,2 3,4 5,7 1,1 1,2 2,4 1,1 2,2 3,3 1,-1 1,-2 3,-3 1,-2 1,-2 3,-3 1,-2 3,-5 6,-7l8 10c1,1 2,2 3,3 3,-4 7,-11 9,-14 2,0 10,8 14,10 1,-2 5,-13 7,-16l15 8 4 -16 16 5 2 -16c0,-1 -1,-1 2,0l6 1c3,0 6,1 8,1l-1 -17 17 0 -4 -16c2,-1 14,-3 17,-3l-7 -16 16 -6 -7 -10c0,-1 -1,-2 -2,-4 2,-1 13,-7 15,-8 -2,-3 -9,-9 -11,-13 1,-1 11,-9 13,-10 -5,-4 -9,-7 -13,-11 1,-2 8,-9 11,-12 -3,-2 -12,-7 -15,-8 1,-3 3,-6 5,-8 1,-2 3,-4 4,-7l-16 -5c1,-3 3,-6 4,-9 0,-1 3,-6 2,-7l-16 -3 4 -17 -17 0 1 -17z"/>
 </g>
</svg>
