<?xml version="1.0" encoding="UTF-8"?>
<!DOCTYPE svg PUBLIC "-//W3C//DTD SVG 1.1//EN" "http://www.w3.org/Graphics/SVG/1.1/DTD/svg11.dtd">
<!-- Creator: CorelDRAW X7 -->
<svg xmlns="http://www.w3.org/2000/svg" xml:space="preserve" width="15.0833mm" height="10.6155mm" version="1.1" style="shape-rendering:geometricPrecision; text-rendering:geometricPrecision; image-rendering:optimizeQuality; fill-rule:evenodd; clip-rule:evenodd"
viewBox="0 0 499 351"
 xmlns:xlink="http://www.w3.org/1999/xlink">
 <defs>
  <style type="text/css">
   <![CDATA[
    .str0 {stroke:#332C2B;stroke-width:2.5194}
    .fil0 {fill:none;fill-rule:nonzero}
   ]]>
  </style>
 </defs>
 <g id="图层_x0020_1">
  <metadata id="CorelCorpID_0Corel-Layer"/>
  <g id="_1176701936">
   <g>
    <path class="fil0 str0" d="M394 335c0,8 -6,15 -14,15l-261 0c-8,0 -15,-7 -15,-15 0,-7 7,-14 15,-14l261 0c8,0 14,7 14,14z"/>
   </g>
   <g>
    <path class="fil0 str0" d="M173 121c0,9 -7,15 -16,15 -8,0 -15,-6 -15,-15 0,-8 7,-15 15,-15 9,0 16,7 16,15z"/>
   </g>
   <g>
    <path class="fil0 str0" d="M50 106c0,14 -11,25 -24,25 -14,0 -25,-11 -25,-25 0,-13 11,-24 25,-24 13,0 24,11 24,24z"/>
   </g>
   <g>
    <polygon class="fil0 str0" points="455,144 394,303 104,303 44,144 158,216 167,151 203,194 249,76 296,194 332,151 341,216 "/>
   </g>
   <g>
    <path class="fil0 str0" d="M326 121c0,9 7,15 15,15 9,0 15,-6 15,-15 0,-8 -6,-15 -15,-15 -8,0 -15,7 -15,15z"/>
   </g>
   <g>
    <path class="fil0 str0" d="M449 106c0,14 11,25 24,25 14,0 24,-11 24,-25 0,-13 -10,-24 -24,-24 -13,0 -24,11 -24,24z"/>
   </g>
   <g>
    <path class="fil0 str0" d="M277 29c0,15 -12,28 -28,28 -15,0 -27,-13 -27,-28 0,-15 12,-28 27,-28 16,0 28,13 28,28z"/>
   </g>
  </g>
 </g>
</svg>
