<?xml version="1.0" encoding="UTF-8"?>
<!DOCTYPE svg PUBLIC "-//W3C//DTD SVG 1.1//EN" "http://www.w3.org/Graphics/SVG/1.1/DTD/svg11.dtd">
<!-- Creator: CorelDRAW X7 -->
<svg xmlns="http://www.w3.org/2000/svg" xml:space="preserve" width="9.6732mm" height="13.4866mm" version="1.1" style="shape-rendering:geometricPrecision; text-rendering:geometricPrecision; image-rendering:optimizeQuality; fill-rule:evenodd; clip-rule:evenodd"
viewBox="0 0 5182 7225"
 xmlns:xlink="http://www.w3.org/1999/xlink">
 <defs>
  <style type="text/css">
   <![CDATA[
    .str0 {stroke:#332C2B;stroke-width:40.8229}
    .fil0 {fill:none;fill-rule:nonzero}
   ]]>
  </style>
 </defs>
 <g id="图层_x0020_1">
  <metadata id="CorelCorpID_0Corel-Layer"/>
  <path class="fil0 str0" d="M333 4605c0,0 -801,-699 161,-1457 962,-758 1553,912 1586,1407l1 29 280 0c79,-799 -512,-958 -861,-1994 -489,-1451 1091,-2565 1091,-2565 0,0 1581,1114 1091,2565 -349,1036 -940,1195 -861,1994l280 0 2 -29c33,-495 623,-2165 1585,-1407 962,758 161,1457 161,1457 82,-505 -664,-1179 -1257,-520 -141,157 -223,331 -264,499l4 0c113,0 204,92 204,204 0,113 -91,204 -204,204l-26 0c44,339 239,548 367,344 229,-365 928,94 277,413 -489,240 -740,-276 -821,-757l-225 0c75,256 200,567 390,956 0,0 -124,692 -703,1249 -579,-557 -703,-1249 -703,-1249 190,-389 315,-700 390,-956l-225 0c-80,481 -332,997 -821,757 -650,-319 49,-778 277,-413 128,204 323,-5 367,-344l-26 0c-113,0 -204,-91 -204,-204 0,-112 91,-204 204,-204l4 0c-41,-168 -123,-342 -264,-499 -593,-659 -1339,15 -1257,520z"/>
 </g>
</svg>
