<svg xmlns="http://www.w3.org/2000/svg" xmlns:xlink="http://www.w3.org/1999/xlink" width="300" height="300" viewBox="0 0 300 300">
  <defs>
    <clipPath id="clip-ico_hogar">
      <rect width="150" height="300"/>
    </clipPath>
  </defs>
  <g id="ico_hogar" clip-path="url(#clip-ico_hogar)">
    <g id="Grupo_3933" data-name="Grupo 3933">
      <path id="Trazado_3263" data-name="Trazado 3263" d="M139.209,0A139.209,139.209,0,1,1,0,139.209,139.209,139.209,0,0,1,139.209,0Z" transform="translate(11 11)" fill="none" stroke="#5f8aaf" stroke-width="3"/>
      <g id="Grupo_2850" data-name="Grupo 2850" transform="translate(79.238 47.222)">
        <rect id="Rect치ngulo_79" data-name="Rect치ngulo 79" width="16.333" height="28.512" transform="translate(106.983 20.492)" fill="#c72a29"/>
        <rect id="Rect치ngulo_80" data-name="Rect치ngulo 80" width="28.805" height="15.441" transform="translate(100.75 5.943)" fill="#eb5d53"/>
        <path id="Trazado_397" data-name="Trazado 397" d="M40.643,82.2v65.626H157.054V82.2c-22.872-22.865-35.63-35.636-58.2-58.2C76.273,46.863,63.515,59.628,40.643,82.2" transform="translate(-27.225 -5.285)" fill="#f7d8a6"/>
        <path id="Trazado_398" data-name="Trazado 398" d="M77.733,87.486H42.689V53.041a17.522,17.522,0,1,1,35.044,0Z" transform="translate(10.982 55.056)" fill="#95814a"/>
        <path id="Trazado_399" data-name="Trazado 399" d="M178.506,85.736l-62.058-62.07a9.7,9.7,0,0,0-13.364,0L41.32,85.736a9.452,9.452,0,0,0,13.364,13.37l55.239-55.239,55.233,55.239a9.447,9.447,0,1,0,13.351-13.37" transform="translate(-38.644 -20.998)" fill="#eb5d53"/>
        <circle id="Elipse_70" data-name="Elipse 70" cx="17.274" cy="17.274" r="17.274" transform="translate(53.671 48.521)" fill="#82ceeb"/>
      </g>
      <path id="Trazado_3701" data-name="Trazado 3701" d="M-22.672-18.2V0h-3.38V-7.8h-9.412V0h-3.38V-18.2h3.38v7.514h9.412V-18.2ZM-11.856.182a7.877,7.877,0,0,1-3.8-.91,6.635,6.635,0,0,1-2.639-2.535,7.159,7.159,0,0,1-.949-3.679,7.089,7.089,0,0,1,.949-3.666,6.662,6.662,0,0,1,2.639-2.522,7.877,7.877,0,0,1,3.8-.91,7.932,7.932,0,0,1,3.822.91,6.662,6.662,0,0,1,2.639,2.522,7.089,7.089,0,0,1,.949,3.666,7.159,7.159,0,0,1-.949,3.679A6.635,6.635,0,0,1-8.034-.728,7.932,7.932,0,0,1-11.856.182Zm0-2.782A3.971,3.971,0,0,0-8.892-3.8a4.306,4.306,0,0,0,1.17-3.146,4.306,4.306,0,0,0-1.17-3.146,3.971,3.971,0,0,0-2.964-1.2,3.928,3.928,0,0,0-2.951,1.2,4.334,4.334,0,0,0-1.157,3.146A4.334,4.334,0,0,0-14.807-3.8,3.928,3.928,0,0,0-11.856-2.6Zm24.31-11.284V-2.106q0,7.332-7.488,7.332a13.9,13.9,0,0,1-3.8-.507A8.053,8.053,0,0,1-1.794,3.25L-.338.806a6.957,6.957,0,0,0,2.3,1.209,9.021,9.021,0,0,0,2.821.455A4.656,4.656,0,0,0,8.138,1.43,4.251,4.251,0,0,0,9.2-1.742V-2.47A5.343,5.343,0,0,1,7.176-1.092,7.147,7.147,0,0,1,4.55-.624,7.532,7.532,0,0,1,.975-1.469,6.348,6.348,0,0,1-1.547-3.848a6.674,6.674,0,0,1-.923-3.51,6.606,6.606,0,0,1,.923-3.5A6.285,6.285,0,0,1,.975-13.208,7.628,7.628,0,0,1,4.55-14.04a7.325,7.325,0,0,1,2.743.494A5.06,5.06,0,0,1,9.36-12.038v-1.846ZM5.044-3.38A4.261,4.261,0,0,0,8.073-4.485,3.751,3.751,0,0,0,9.256-7.358a3.68,3.68,0,0,0-1.183-2.834,4.29,4.29,0,0,0-3.029-1.092,4.326,4.326,0,0,0-3.055,1.092A3.68,3.68,0,0,0,.806-7.358,3.751,3.751,0,0,0,1.989-4.485,4.3,4.3,0,0,0,5.044-3.38ZM22.022-14.04a6.77,6.77,0,0,1,4.693,1.469A5.678,5.678,0,0,1,28.34-8.138V0H25.272V-1.69A3.781,3.781,0,0,1,23.569-.3,6.657,6.657,0,0,1,20.9.182a6.529,6.529,0,0,1-2.73-.533,4.218,4.218,0,0,1-1.807-1.482,3.761,3.761,0,0,1-.637-2.145,3.676,3.676,0,0,1,1.391-3A6.908,6.908,0,0,1,21.5-8.112H25.09V-8.32a2.846,2.846,0,0,0-.871-2.236,3.768,3.768,0,0,0-2.587-.78,7.467,7.467,0,0,0-2.3.364A5.653,5.653,0,0,0,17.42-9.958l-1.274-2.366A7.889,7.889,0,0,1,18.772-13.6,11.684,11.684,0,0,1,22.022-14.04ZM21.58-2.184a4.2,4.2,0,0,0,2.171-.559,3.042,3.042,0,0,0,1.339-1.6V-5.954H21.736q-2.808,0-2.808,1.846a1.657,1.657,0,0,0,.7,1.4A3.218,3.218,0,0,0,21.58-2.184Zm14.014-9.672q1.4-2.184,4.94-2.184v3.094a4.126,4.126,0,0,0-.754-.078,3.925,3.925,0,0,0-2.964,1.1A4.407,4.407,0,0,0,35.75-6.734V0H32.5V-13.884h3.094Z" transform="translate(150 233)" fill="#6a6a6a"/>
    </g>
  </g>
</svg>
