<svg id="Layer_1"
    data-name="Layer 1"
    xmlns="http://www.w3.org/2000/svg"
    width="100"
    height="100"
    viewBox="0 0 2000 2000">
    <defs>
        <style>.cls-{}</style>
    </defs>
    <title>Moms_MommysLittlePrince</title>
    <path
        class="cls-1"
        d="M1319.63,291c-12.47,26.09-25.29,50.72-40,73-8.3,13.19-45.19,72.65-59.4,66.51-10.72-4.62-27.42-78.7-30.74-89.52-10.16-34.05-19.13-67.58-27.38-100.87-1.47-5.94-8.89-4.94-10.74-.31a413.27,413.27,0,0,1-82.76,130.94c-25.74-60.85-48.94-120.66-73.27-179.94a4.67,4.67,0,0,0-7.92,0C963,250.15,939.85,310,914.11,370.81a413.1,413.1,0,0,1-82.77-130.94c-1.84-4.61-9.26-5.64-10.73.31-7.61,30.73-15.8,61.67-25,93-4.17,13.81-21.33,92.3-33.08,97.35-13.06,5.67-49.72-51.75-55.66-61-16.26-23.84-30.26-50.26-43.79-78.55-2.51-5.24-10-1.88-9.94,4.2.4,66.77,3.36,133.09,11.39,196a1010.15,1010.15,0,0,0,17.79,101.28c4.54,19.4,6.91,46.39,18.52,59,20.94,22.32,83.51,8.12,116.82,7.69,56-2.63,114.72-8,173.68-12.88,56.48,4.71,112.61,9.76,166.59,12.5,35.26.5,102,16.09,124-7.3,11.49-12.49,14-39.64,18.52-59,6.94-29.63,12.41-60.88,16.76-93.16,8.77-65.26,12-134.43,12.42-204.09C1329.61,289.15,1322.14,285.78,1319.63,291Zm-80.71,142.09a1.76,1.76,0,0,0,.38.11c-.21,0-.42.12-.64.16ZM991.34,201.18c1.54,4.83,3.06,9.67,4.67,14.47q-6.93,6.61-13.89,13.22Q986.91,215.08,991.34,201.18ZM831.58,268.53c-.08.06-.18,0-.26.11-3.4,3.27-6.54,6.81-9.69,10.36q2.79-10.22,5.46-20.41Q829.28,263.61,831.58,268.53ZM665,321.82c-.43,2.38-.85,4.76-1.29,7.16,0-3.34-.1-6.69-.11-10C664.06,319.9,664.51,320.88,665,321.82Zm644.37,146.43c-6.39,48.93-12.6,104.32-28.67,144.35-18.4,46-84.61,33.09-133.69,32.09-47.46-2.1-96.93-6.25-146.36-9a5.59,5.59,0,0,0-3.24-.79c-2,.11-4,.17-6,.27-2-.11-4.06-.16-6.1-.27a5.63,5.63,0,0,0-3.25.8c-46.93,2.62-93.86,6.51-139.12,8.63-29.46,1.15-65.6,5.42-94.3.85L744,637c-.93-1.68-3.69,1.11-2.8,2.78l2.39,4.5a86.73,86.73,0,0,1-9.43-2.55,17.64,17.64,0,0,1-.39-7.69c.44-2.86-3.27-2.68-3.8.29a30.32,30.32,0,0,0-.49,5.54,56.85,56.85,0,0,1-7.34-3.73c.14-4.37.5-9,.5-9.81,0-6.62-.34-13.1-.57-19.63,0-1-1.24-.48-1.36.5-1.07,8.82-2,17.59-2.72,26.36-.93-.69-1.73-1.53-2.6-2.29,0-.12.06-.23.07-.35.38-11.59,1.85-24.33.66-35.24-.11-1-1.54-1.32-2.06.13-3.32,9.29-4.52,19.41-5,28.83-.84-1.09-1.75-2.09-2.52-3.28,1.32-14.79,2.14-29.38,3.23-44,.1-1.34-1.87-1-2,.42-1.58,12.17-3.3,24.44-4.84,36.72-.29-.64-.68-1.19-1-1.86-1-2.47-1.89-5.17-2.84-7.78,1.75-7.94,2.4-15.9,3.55-23.62,1.61-10.8,3.28-21.52,4.45-32.16.22-2-2.45-1.39-2.89.52-2.62,11.41-4.66,22.85-6.79,34.36-.61,3.27-1.31,6.62-2,10-.83-2.71-1.62-5.46-2.38-8.27,2.92-15.18,4.8-30.32,8.46-45.35.78-3.18-3.21-3.12-4,.06-2.59,10.25-5.5,21.46-7.62,32.52-.85-3.68-1.69-7.37-2.46-11.15,4.27-18.5,6.93-37,12.25-55.17.83-2.81-2.67-2.77-3.55,0-4,12.3-8.5,26.24-11.6,40-.43-2.43-.81-4.89-1.21-7.34,3.49-9.69,5.35-19.71,7.72-29.32q4.69-19,9.43-37.68c.69-2.71-2.65-2.8-3.44-.17q-5.55,18.69-11,37.81c-1.53,5.31-3.25,10.72-4.77,16.13-.44-2.92-.86-5.83-1.28-8.75,2-8,3.54-16,5.55-23.81,3.5-13.58,7.15-27,11.24-40.18.74-2.38-2.5-3.17-3.37-.77-5.27,14.4-11.54,30.76-15.89,47-.21-1.54-.43-3.1-.63-4.64,5.69-20.78,9.22-42,15.72-62,.42-1.27-1.3-1.7-1.8-.44-5.56,14-11.84,29.81-16.18,45.71-.08-.61-.16-1.23-.24-1.83-.11-.78-.19-1.56-.29-2.34,6.14-21.41,11.11-43.19,16.82-63.7.69-2.46-2.51-3.38-3.5-.94a426.57,426.57,0,0,0-15.71,45.82c0-.08,0-.15,0-.22,5.83-21,10.75-41.95,14.55-62.5.24-1.32-1.26-1.45-1.67-.2-5.28,15.88-10,32.23-14.39,48.8-.15-1.44-.31-2.88-.46-4.31,3.89-10,5.44-21,7.7-31.1,2.45-11,5.12-22.08,6.27-33,.06-.57-.71-.65-.92-.12-4.12,10.49-6.84,21.66-9.67,32.67-1.46,5.67-3.24,11.53-4.7,17.43-.11-1.26-.22-2.52-.33-3.76a3.67,3.67,0,0,0,.89-1.76l.09,0c5.54-20.39,11.13-41.56,13.65-61.68.08-.64-.74-1.1-1-.32-5.86,16.26-10.36,33.66-14.67,51q-.56-7.47-1-15c.76-4.29,1.15-8.66,1.9-12.81,1.47-8.09,3.35-16.08,5.5-24a.54.54,0,1,0-1-.33c-2.68,7.46-5.09,15.06-7.17,22.79-.18-3.52-.38-7-.52-10.58,2.51-10.45,3.78-21.42,5.67-31.61.27-1.47-1.6-1.82-1.92-.33-1.25,5.93-2.81,12.09-4.21,18.3-.09-2.89-.2-5.78-.26-8.67.92-6.55,1.63-13.1,2.34-19.6,26,50.93,57.9,91.85,95,125.9a4,4,0,0,0,1,.67,1.8,1.8,0,0,0,2.52,2.25c5.76-2.83,10.6-9.31,15.26-14q8.78-8.74,17.59-17.18a1.47,1.47,0,0,0-1.9-2.25q-9.32,7.83-18.62,16c-1.39,1.21-2.9,2.44-4.42,3.68,4.44-5.11,8.5-11,12.65-15.69,7.06-8,14.11-15.85,21.52-23.25,1.2-1.19-.36-3.11-1.67-2a289,289,0,0,0-22.44,20.83c-1.84,1.93-3.9,4-6,6.14.53-1.58,1-3.15,1.58-4.73,4.88-5,9.32-11,13.6-15.72,7.22-8,14.3-16,21.39-23.88,1.25-1.39-.55-2.91-1.86-1.68-7.74,7.28-15.47,14.69-23,22.43-1.75,1.78-3.66,3.59-5.6,5.44.45-1.39.94-2.77,1.4-4.17,5.4-6.05,10.17-13,15.42-18.95,6.31-7.16,12.75-14,19.59-20.44,1.1-1-.34-2.82-1.52-1.84a228.27,228.27,0,0,0-21.18,19.47c-2.58,2.73-5.34,5.67-8,8.71.9-2.79,1.71-5.58,2.6-8.36,4.11-4,8-8.34,11.9-12.37q10-10.29,20-20.22c1.31-1.29-.55-2.91-1.86-1.71q-9.89,9-19.75,18.33c-2.43,2.3-5,4.59-7.48,6.94.58-1.82,1.14-3.64,1.71-5.46,5-4.43,8.88-10.45,13.12-15.45q7.58-8.94,15.56-17.33a1.52,1.52,0,1,0-2.22-2.07q-8.35,8-16.36,16.62c-2.06,2.22-4.34,4.52-6.54,6.91.61-2,1.26-3.94,1.87-5.91.14-.09.27-.09.4-.24,3.63-4,6.27-9.07,9.61-13.31a140.14,140.14,0,0,1,10.83-12.18,1.16,1.16,0,1,0-1.69-1.58,139.57,139.57,0,0,0-11.69,12.55c-1.48,1.82-3.13,3.77-4.67,5.81,1.18-3.9,2.24-7.81,3.38-11.7,8.31-9.49,15.58-20.17,23.29-29.77.36-.46-.23-1-.62-.59-6.65,7.64-14,15.22-20.61,23.3q1.61-5.47,3.19-10.92c4.45-4,8-9.22,11.7-13.86,4.09-5.2,8-10.39,11.8-15.73.81-1.15-.94-2.39-1.88-1.36-4.57,5-8.9,10.21-13.17,15.57-2,2.55-4.22,5.15-6.25,7.85,1.5-5.25,3-10.46,4.48-15.69.77-1.09,1.53-2.16,2.33-3.14a172.09,172.09,0,0,1,11.76-12.8A418.13,418.13,0,0,0,911.77,385a4.56,4.56,0,0,0,4.16,1.37,2.14,2.14,0,0,0,1.76.33C925,384.77,932.1,377.57,938,373c6.47-5,12.83-10.05,19.23-15,1.88-1.45-.56-4.41-2.55-3.1q-7.57,5-15.12,10.06c2.58-2.2,5.07-4.48,7.47-6.52,6.29-5.35,12.48-10.77,18.71-16.08.91-.78-.33-2.34-1.32-1.6-6.69,4.91-13.4,9.83-20.07,14.86-5.81,4.39-12.93,9-17.18,14.91-.79,1.09.46,1.95,1.52,1.72-1.52,1-3,2-4.56,3.08q4.6-10.73,9.11-21.42c14.38-7.86,27.09-21.37,37.51-32.62a1.49,1.49,0,0,0-2.17-2,250.85,250.85,0,0,1-19.72,18.19c-4.06,3.35-8.48,6.43-12.76,9.65l2-4.7a1.59,1.59,0,0,0,.46-.08c6.2-3.29,11.14-9.81,16.26-14.44q8.78-7.94,18-15.3c1.6-1.29-.67-3.32-2.26-2.13-6.33,4.73-12.56,9.62-18.63,14.74-3.14,2.64-6.9,5.44-10.18,8.53,1.08-2.61,2.15-5.22,3.22-7.82,15-10.25,28.18-23.36,41.37-34.76,1.26-1.08-.45-3.29-1.86-2.27-11.17,8-23.46,15.94-34.56,25q4-9.71,7.8-19.43a1.53,1.53,0,0,0,1.75.41c5.72-2.21,9.67-9.05,13.77-13.32a189.28,189.28,0,0,1,16.35-15c1-.81-.32-2.43-1.39-1.71a198.12,198.12,0,0,0-17.41,13c-2.82,2.38-6.87,5.27-9.85,8.54.87-2.23,1.7-4.46,2.56-6.67,5-3.51,9.08-8.26,13.61-12.2a221.55,221.55,0,0,1,19.45-15c1.36-.95.11-3.12-1.35-2.2-6.51,4.11-12.82,8.49-18.89,13.23-3.07,2.4-6.44,4.88-9.51,7.59.36-.94.72-1.87,1.07-2.81,4.59-3.46,8.58-8.49,12.38-12.3,5-5.05,10.32-10,14.71-15.55.34-.43-.33-1.06-.78-.74-5.89,4.11-11.15,9.09-16.51,13.84-1.87,1.65-4,3.37-6.2,5.16.83-2.24,1.65-4.5,2.47-6.74.56,1.11,1.75,1.64,3.67.59a1.21,1.21,0,0,0-.3-2.22c.55.11,4.18-4.39,4.69-4.91,1.79-1.88,3.58-3.73,5.29-5.67,3.43-3.88,6.75-7.84,10.13-11.76a1.06,1.06,0,0,0-1.53-1.46c-6.31,5.83-13.73,11.64-19.34,18.31q2.09-5.81,4.12-11.65,8-7.73,16.06-15.42c18.51,55.21,41.12,109.27,64.75,164.41,1.45,3.39,6,5.84,9.15,3.09h0c12.26-3.33,24-10.57,35.29-15.78,2.2-1,.23-4.16-2-3.35s-4.52,1.57-6.83,2.35c1.2-.75,2.38-1.49,3.55-2.15,8-4.52,15.83-9.16,24-13.38,1.23-.64.38-3-1.06-2.48-8.41,2.84-16.87,5.77-25,9.35-2.47,1.08-5.29,2.19-8.09,3.47,1.33-1.57,2.65-3.13,4-4.71,6-2.08,11.66-6.08,16.92-9.2,7.42-4.4,14.79-8.85,22.24-13.19,1.49-.87.15-3.22-1.44-2.49-7.84,3.64-15.74,7.22-23.58,10.94-1.53.73-3.16,1.45-4.8,2.18l1.4-1.86c4.26-2.72,8.36-5.75,12.48-8.45,7-4.59,14.06-9.18,21.13-13.71a.92.92,0,0,0-.92-1.58c-7.32,3.45-15.45,6.86-23.24,10.79,1.05-1.53,2.09-3.05,3.12-4.59l.75-.5c3-1.92,6-3.76,8.94-5.67,6-3.82,11.81-7.78,17.81-11.54a1,1,0,0,0-1-1.81c-7.07,3.47-14,7.14-20.76,11.08,1.87-2.91,3.61-5.91,5.41-8.87,4.52-3,9.2-5.8,14-8.38.64-.34.07-1.29-.58-1-3.26,1.38-6.85,2.86-10.44,4.49,1.91-3.25,3.76-6.53,5.58-9.84,4.08-2.83,8.14-5.66,12.29-8.4,1.37-.9.1-3.22-1.37-2.37-2.55,1.49-5,3.09-7.58,4.61,1.34-2.51,2.72-5,4-7.55a38.54,38.54,0,0,0,8.33-6.06c1.43-1.37-.84-3.72-2.26-2.34-1.06,1-2.22,1.89-3.37,2.8q4.2-8.59,8.1-17.46c16,61,35,122.76,57.09,187.43,1.34,3.93,5.89,6.75,8.76,4.12,2.59-2.39,5.08-4.88,7.63-7.33.21.08.36.26.6.28,5.77.64,10.65-2.75,15.53-4.83q9-3.81,18-7.57c2.17-.91.22-4.8-2-4.09q-8.84,2.82-17.75,5.54c-.25.07-.53.13-.79.21,12.48-5.43,24.18-12.33,36.88-17.42,1.79-.72.19-3.85-1.58-3.34a224.21,224.21,0,0,0-27.84,9.55c.86-1,1.76-1.88,2.62-2.85,12.2-4.33,23.76-11.07,35.65-16,2.4-1,.26-5.38-2.15-4.55-7.41,2.53-15.29,5-22.88,8,.69-.84,1.4-1.65,2.09-2.5,11-4.48,21.45-11.13,32.36-15.85,1.78-.77.2-4-1.58-3.35-7.09,2.45-14.75,4.88-22.07,7.92,1.14-1.5,2.29-3,3.41-4.53,3.21-1.58,6.32-3.4,9.44-5q9.94-5,19.85-10.17c2.31-1.2.2-5.77-2.14-4.58q-10,5.08-20,10l-.39.18c2.39-3.44,4.76-6.92,7.07-10.47.2-.1.4-.23.59-.34q6.69-3.51,13.36-7.1c1.9-1,.16-4.74-1.77-3.74q-3.75,2-7.51,3.89c2.1-3.36,4.14-6.79,6.18-10.25.94-.57,1.92-1.07,2.87-1.64s.49-2.18-.35-2.57q7.32-12.73,14.11-26.32A1180.57,1180.57,0,0,1,1309.36,468.25Z" />
    <path
        class="cls-1"
        d="M990.15,276.16c-6.83,4.47-13.5,9.17-20,14.17-5.1,3.94-14.38,9.05-15.67,15.54a1.24,1.24,0,0,0,1.57,1.47c6.44-1.19,11.72-9,16.36-13.15,6.25-5.6,12.74-10.89,19.42-15.94C993.08,277.32,991.46,275.3,990.15,276.16Z" />
    <path
        class="cls-1"
        d="M1032.61,568c-9.34-6.06-22.52-5.84-32.85-1-4.26,1.09-7.93,4.21-10.87,8.21-.29.35-.54.73-.81,1.1l-.07.1a22.21,22.21,0,0,0-3,5.41c-2.92,6.39-4.2,13.43-3.27,18.23,3.86,19.78,33.9,22.85,48.76,13.23C1044.71,604,1049.83,579.25,1032.61,568Zm-7.4,34.64c-8.06,7.21-30.6,8-32.41-5.86-.56-4.31.87-8.72,3.29-12.73,5.55-5.83,11.83-10.29,21.41-9.45C1033.83,576.08,1034.69,594,1025.21,602.59Z" />
    <path
        class="cls-1"
        d="M924.77,588l-1-.3c-7.44-2.17-15.34,5.77-15.39,12.54s7.8,12.88,15.27,9.34l1-.49C935.71,603.89,935.78,591.24,924.77,588Z" />
    <path
        class="cls-1"
        d="M821.58,594.05c-6.25,1.42-11.59,8.08-11.66,14.36s5.15,10.22,11.42,8.69,11.65-8,11.71-14.16S827.85,592.62,821.58,594.05Z" />
    <path
        class="cls-1"
        d="M1128.34,591.45c-15.35-2.7-15.18,20.24.22,23.16C1143.89,617.76,1143.68,594.37,1128.34,591.45Z" />
    <path
        class="cls-1"
        d="M1226.56,592.39c-6.5-2-12.71,2.17-12.33,9.33s5.62,14.81,12.59,17.14c6.5,2.18,12.63-1.78,12.27-9.11S1233.53,594.56,1226.56,592.39Z" />
    <path
        class="cls-1"
        d="M445.95,754.3c.29,5.29-.61,8.82-3.37,12.62a4.68,4.68,0,0,1-4,1.56c-4.63.68-9.18,1.85-13.41,2a7.76,7.76,0,0,0-3.17,1c-2.31.35-2.63,1.37-1.13,5,.9,2.78,1.26,5.15,2.3,8.88.36,2.37,1.79,5.56,1.83,8.95.82,11.53,2.63,23.39,4.05,35.8q.48,12.31,1,24.62c-.29,13.16,1.45,27.46,1.41,42,.28,7.73,1.9,15.25,1.82,23.52,1.25,5.15,2.43,9.82,1.77,14.3a92.91,92.91,0,0,0,2.5,10.3c.88,8.61,1.26,16.81,2.73,26.29l2.06,13.28c2.71,8.81,2.8,18,4.28,27.51.74,4.74,1,9.55,2.36,15.18a71,71,0,0,1,1,9.08l.59,3.79c-.13,2,2.31,3.53,4.38,2.72,3.86-.6,7.3-1.12,11.45.19,4.36,2.74,4.93,3.63,6.5,8.24a7.84,7.84,0,0,1,.07,3.39c-.71,1.08-1.5,1.68-1.64,3.64A11.43,11.43,0,0,1,466,1061c-8.47,1.77-16.28,4.93-24.8,6.29-2.21-.13-5.12.82-7.6,1.71-3.41.55-5.66,2.86-9.06,3.42-2.4,1.37-6,1-8.75,0a11.18,11.18,0,0,0-5.43-1,7.37,7.37,0,0,1-5.31-5.43l-1.92-3.57c.5-7.39-3.68-24.21-2.25-28.83.11-2-.21-3.86,0-5.35-1.44-8.52-3.48-17.91-4.57-27-.53-5.75-1.49-11.43-2.45-17.11-.81-10.09-2.4-19.55-3.2-29.64-1.64-12.38-1-22.22-3.44-34-1.23-10-1.27-21.2-2.56-31.7-1.4-5.61-1.82-10.89-2.4-17.12.64-4.49-.15-9.22-.49-14,.29-1-.77-1.82-2.2-2.07-2.16,3.77-4.24,8-5.93,11.71-2.65,6.29-4.37,12.43-6.54,18.65-.82.63-1.39,2.67-1.75,3.23a2.89,2.89,0,0,0-.49,2.52c-2.59,11.66-3.2,16.14-6.74,29.93-.36.55-.28,1-.72,1.1,0,5.36-2.85,9.77-1.93,15a15.1,15.1,0,0,1-1.71,3.23,22.27,22.27,0,0,1-1.64,6.14c-1.53,4.17-2.87,6.85-6.13,8.91l-3.27,2.06c-.44.08-.53-.39-.53-.39-.88.16-12.76-.1-13.38-1a4.33,4.33,0,0,1-1.41-.23c-6.34.2-10.84-4.32-14.57-9.47-4.61-5-8.34-10.14-12-14.81-5.44-6.78-11.54-14.39-16.41-22.73a10.39,10.39,0,0,0-2.8-4.83,11.47,11.47,0,0,0-4.43-6,19.48,19.48,0,0,1-3.45-5.68,7,7,0,0,0-1.46-2.65,32.88,32.88,0,0,0-4.83-7.85,14.85,14.85,0,0,1-2.58,3.45c1.22,6.12,1.36,11.48,1.69,17.78a33.4,33.4,0,0,0,1.67,6q.11,1.69.21,3.38a248.08,248.08,0,0,0,2.43,26c.47,2.35-.47,4.5.19,7.8.47,2.35,1.67,6,1.8,8.94,1.2,10.53,2,21.15,2.23,31.38a60,60,0,0,1,1.65,14.85c.82,1.79.33,3.85.47,6.76.95,9.11,3.15,19.93,4.3,30,1.44,7.06,3,14.58,1.65,21.22-.33.56.29,1.41.48,2.35,1.29,4.15.88,8.64.7,12.11-.37,2.53-.74,5.05-.35,6.93.91,2.26,1.53,3.12,2.8,2.86,1,.77,1.47.68,1.89.59,4-2.28,8.6-1.26,12.71-.62,1.37.22,2.64,0,3.59.26a18.54,18.54,0,0,1,5,9.77c-1.89,3.8-4,6.66-7.66,7.9-5.4,1.58-10.18,4-16.71,4.39-.52-.39-1.36-.21-2.21,0-2.44,1-4.65,1-7.7,1.11-7.8.65-15.25-1.2-22.42-1.61q-7.54-.09-15.09-.15c-1.9-.57-3.27-.75-5.16-3.29-3,.66-3.91.38-5.07-.84-2.33-.46-2.85-2.81-1.68-3.56.64-1.13,1.49-1.31,1.49-3.28a14.8,14.8,0,0,0,3.4-2.72c1.28-2.25,3.73-3.28,6.38-3.37.43-.09.65-1.12,1.07-1.22l-.21-.94c-1.32-8.07-3.49-15.94-4.28-23.64-.7-5.25-1.2-9.57-2.12-13.79-.31-1.41,0-2-.18-2.91-3.26-6.66-2.64-14.16-3.11-20.45-.9-6.19-.59-13.14-1.48-19.33a33.88,33.88,0,0,0-1.6-9.48,19.34,19.34,0,0,1-1.45-4.6c.93-4.13-.32-7.79-1.67-11.92-1.25-3.66-1.19-7.6-1.9-10.88-.41-1.88-.17-2.91-.48-4.32a46.87,46.87,0,0,1-2.07-7.41q-2.24-13.51-4.46-27a48.79,48.79,0,0,1,.6-8A32.15,32.15,0,0,0,212,908.06l-.61-2.81q-1.49-34.06-2.77-68.13c1.38-4.71-.17-9.78,0-15.7-1.77-1.59-3.08-3.27-5.93-3.16-12.66,1.23-16.83-.3-19.54-1.68l-3.72-1.64c-.46.1-1.78-1.58-1.18-3.18,2-3.88,2.95-8.52,16.91-13,5.42-1.65,9.23-6.38,14.38-9.42l11.88-5.41c4.64-.92,8.35-3.76,38.66-16.07a11.54,11.54,0,0,1,3.62-1.19c2.32-.45,4.08-1.28,6.48,1.19a.47.47,0,0,1,.56.38c1.57.68,3,.41,3.78,2.21a3.64,3.64,0,0,1-.29,3.48c-1.58,1.77-.85,3.1,0,4.89,1.81,7-3.27,10.4-7.6,12.71l-3.41,2.13-1.47,2.25a15.11,15.11,0,0,0,3.77,2.2c2.39,2.47,4.41,5.5,7.25,7.88a117.34,117.34,0,0,1,9.41,11.88c3.09,6.25,6.54,11.95,9.71,18.68a259.29,259.29,0,0,0,10.89,25.3q5.48,10.45,10.91,20.91c2.67,6.83,6,12.08,9.86,18.19a13.07,13.07,0,0,0,2,3.53c1.24,1.72,2.84,2.89,3.55,4.23,1.68,1.64,2,3.53,3.27,5.26,1.25-.72,1.08-1.66,1.44-2.21,3.1-10.81,6-20.12,8-29.74,1.21-3.63,2.59-6.31,2.82-10.25q3-7.85,6.08-15.69c2.75-8.28,4.62-16.4,8-24.28,1.09-4.57,3.18-8.82,4.29-13.39,1.78-6.15,4.18-11.42,6.07-17.09,1.66-4.17,3.79-8.42,5.92-12.67a45.48,45.48,0,0,1,3.28-8.81c.23-1.5-.85-2.29-2.77-2.46-.46.08-1-.32-1.85.3l-5.87-3.89a3.22,3.22,0,0,1-2.56-4,4.78,4.78,0,0,0,1.46-2.68c5-1.32,9-3,12.28-6.4a13,13,0,0,0,3.79-3,122.26,122.26,0,0,1,12.63-4.45l8.83-1.39a59.5,59.5,0,0,1,13-2c2.4.12,4.58-1.18,7.37-1.6,3.37-2.93,8.05-.24,12.84,0C441,749.68,443.28,752.26,445.95,754.3Z" />
    <path
        class="cls-1"
        d="M640.38,997.37c1,11-16.18,38.32-23.64,41.07-.76,1-2.47,1.24-2.37,2.19-1.35,3.53-4.83,3.42-9.06,4.38a11.91,11.91,0,0,0-4.23,1c-5.14.58-5.14.58-11.09-2.11a18,18,0,0,1-15.45-2,46.33,46.33,0,0,1-14.71-9.81c-2-2.17-4.41-3.8-5.14-6.13-1.77-3.65-4.72-6.18-6.75-8.34-1.85-.73-3-2.53-5.3-3.68-8.2-12.5-16.85-24.43-21.68-37.35-3.2-7.32-6.72-13.63-9.44-20.53-1.26-2.74-2.47-5-2.73-6.9a112.07,112.07,0,0,0-5-17.24c-1.53-4.64-3.07-9.27-3.34-14.56-.78-5.71-2.07-11.83-2.53-18.55-1.87-7-2-14.75-1.64-22.06.64-5.42.44-10.23,1.09-15.65q.13-2.44.26-4.88a68.6,68.6,0,0,1,2.81-20.24,38.22,38.22,0,0,0,1-13.21c-.13-1-.25-1.9,1.12-2.08,2.94-2.33.74-4.94.42-7.32,0-3.39,0-7.26,2.87-10.06a34,34,0,0,0,2.65-4.7c2.34-7.08,5.29-13.27,8.19-19.93,12.56-39,68.8-71.73,114.3-29.67,1.16,2.3,2.27,4.12,4.68,4.86a10.18,10.18,0,0,1,5.73,6.21c2.26,4.13,6.31,7.61,7.76,13.26-.37,1,.72,2.83,1.73,3.7A24.67,24.67,0,0,1,656,787.56c.86,4.26,6.41,40.39,7.74,45.09a43.42,43.42,0,0,1,2.06,12.83l.55,6.22-.76,6.81c-.6,3.43-1.24,6.38-1,8.77a14.12,14.12,0,0,1,.11,6.26c-.78,31.4-.63,37.66-3.35,42.24-.36,1-1.11,2.51-.53,3.91.78,9.08-12.08,51.28-12.66,53.76-1.13,2-4.33,18.75-6.16,22.31C641.59,996.28,640.33,996.89,640.38,997.37Zm-8.91-199.79c-.69-2.34-.56-5.73-1.25-8.08-2.86-10.33-7.53-20-16.63-26.81-5.25-5.77-31-5.46-36.71-1.9-5.81,2.57-13.7,7.34-14,12.69.44,3.82.36,7.21-1.61,10.33-1.59,6.46-3.16,12.93-2.43,19.13-1.05,6.89-3.92,14-5.06,19.93-1.48,6.95.17,13-.85,19.92-.11,6.78-1.11,13.67-1.15,20.93.82,14.41,1.66,28.81,4.4,44,3.08,18,6.16,36,11.83,53.7l.17,1.43c1.74,10.92,6.2,22,21.36,31.34.16,1.43,5.27,3.74,11.83,3.49,1.3-.15,2.45-1.72,3.21-2.77a26.14,26.14,0,0,1,2.57-4.63c2.31-7,5.52-14.12,8.26-21.65a90.37,90.37,0,0,0,5.42-11.67l2.87-6.57a15,15,0,0,1,.44-4.39c.63-2.48,1.32-4.48,1.12-6.39,1.32-4.48,4-8.61,3.94-13.91,0-.48,1.28-.61,1.63-1.61,1.24-5.43,5.3-9.7,4.64-16.38a9,9,0,0,1,.16-2.91c2.74-4.13,3.12-9.47,3.05-14.77-.51-5.26.36-10.16-.1-14.94-.06-5.3,0-9.64-.49-14.42a120.85,120.85,0,0,0-1.88-28.76c-.18-1.91-.92-4.73-.24-7.21-1.24-8.08-2.62-17.59-3.55-27.15Z" />
    <path
        class="cls-1"
        d="M977.15,714.65c-.44,5.28-1.83,8.65-5.07,12a4.66,4.66,0,0,1-4.19,1c-4.66,0-9.32.56-13.53.12a7.71,7.71,0,0,0-3.26.52c-2.33,0-2.79,1-1.81,4.82.5,2.87.53,5.27,1,9.11,0,2.4,1,5.75.57,9.11-.79,11.53-.64,23.53-.95,36q-1.23,12.26-2.44,24.51c-2.11,13-2.37,27.4-4.42,41.83-.79,7.69-.23,15.37-1.46,23.55.53,5.27,1,10.07-.23,14.41a93,93,0,0,0,1,10.55c-.32,8.65-1.08,16.82-.94,26.42q.1,6.72.2,13.44c1.46,9.1.27,18.24.42,27.84.07,4.8-.29,9.61.23,15.36a71.14,71.14,0,0,1-.3,9.13q0,1.92.06,3.84c-.4,1.93,1.79,3.81,3.95,3.3,3.9-.05,7.36-.1,11.28,1.78,3.93,3.32,4.37,4.28,5.28,9.07a7.86,7.86,0,0,1-.4,3.37c-.85,1-1.71,1.46-2.12,3.38a11.38,11.38,0,0,1-5.58,2c-8.61.58-16.76,2.62-25.36,2.79-2.16-.44-5.16.1-7.73.64-3.44.07-6,2.05-9.42,2.13-2.56,1-6,.15-8.64-1.22a11.11,11.11,0,0,0-5.21-1.78,7.36,7.36,0,0,1-4.48-6.12l-1.41-3.8c1.52-7.25-.29-24.48,1.76-28.87.38-1.93.32-3.85.72-5.3-.24-8.64-1-18.22-.78-27.35.27-5.77.11-11.53,0-17.29.6-10.1.33-19.7.94-29.8C895,892.66,897,883,896.19,871c.17-10.09,1.68-21.18,1.86-31.74-.61-5.75-.29-11,0-17.29,1.25-4.35,1.13-9.15,1.46-14,.43-1-.51-1.91-1.89-2.35-2.65,3.43-5.29,7.35-7.47,10.77-3.48,5.86-6,11.7-9,17.56-.89.51-1.74,2.45-2.18,2.95a2.89,2.89,0,0,0-.83,2.43c-4.17,11.18-5.39,15.54-10.78,28.7-.43.49-.42,1-.86,1-.71,5.31-4.16,9.27-4,14.55a15.05,15.05,0,0,1-2.13,3,22.33,22.33,0,0,1-2.47,5.86c-2.09,3.92-3.78,6.39-7.28,8L847.11,902c-.45,0-.46-.46-.47-.46-.89,0-12.57-1.87-13.06-2.8a4.31,4.31,0,0,1-1.36-.42c-6.28-.68-10.1-5.78-13.06-11.41-3.86-5.58-6.83-11.2-9.79-16.34-4.43-7.47-9.39-15.86-13-24.79a10.42,10.42,0,0,0-2.1-5.17,11.5,11.5,0,0,0-3.54-6.54,19.53,19.53,0,0,1-2.62-6.11,7.08,7.08,0,0,0-1.07-2.83,33,33,0,0,0-3.68-8.45,14.84,14.84,0,0,1-3,3.06c.36,6.23-.24,11.55-.79,17.84a33.72,33.72,0,0,0,.82,6.2l-.26,3.38a248.92,248.92,0,0,0-1.18,26c.14,2.4-1.09,4.39-.89,7.75.14,2.4.82,6.2.54,9.1-.27,10.6-1,21.22-2.13,31.39a60.28,60.28,0,0,1-.42,14.93c.56,1.89-.21,3.86-.47,6.76-.32,9.16.35,20.18.1,30.29.45,7.19.91,14.85-1.3,21.24-.4.51.09,1.44.15,2.4.7,4.29-.33,8.68-1,12.09-.71,2.45-1.42,4.9-1.3,6.82.58,2.37,1.07,3.3,2.37,3.22.92.9,1.35.88,1.78.85,4.22-1.71,8.65-.05,12.61,1.16,1.32.4,2.61.33,3.5.76a18.63,18.63,0,0,1,3.62,10.37c-2.39,3.5-4.82,6-8.65,6.75-5.55.81-10.6,2.57-17.08,2-.46-.45-1.32-.4-2.17-.34-2.54.65-4.71.31-7.74,0-7.78-.44-14.87-3.31-21.88-4.72q-7.42-1.14-14.85-2.25c-1.79-.82-3.12-1.2-4.63-4-3,.24-3.91-.17-4.88-1.54-2.23-.79-2.42-3.18-1.17-3.76.78-1,1.64-1.1,1.92-3a14.68,14.68,0,0,0,3.73-2.22c1.57-2.05,4.13-2.73,6.75-2.45.43,0,.79-1,1.22-1.06l-.07-1c-.19-8.17-1.24-16.28-1-24,0-5.3.14-9.64-.18-13.95-.11-1.44.29-1.95.22-2.91-2.29-7-.65-14.39-.24-20.68,0-6.26,1.23-13.09,1.21-19.35a34.11,34.11,0,0,0-.27-9.61,19.43,19.43,0,0,1-.8-4.75c1.49-4,.76-7.76,0-12-.73-3.8-.12-7.69-.37-11-.14-1.91.23-2.91.13-4.34a47.11,47.11,0,0,1-1-7.63q-.34-13.69-.67-27.39a49,49,0,0,1,1.69-7.83,32.3,32.3,0,0,0-.18-14.91l-.21-2.87q3.23-33.93,6.67-67.85c2-4.47,1.18-9.71,2.18-15.55-1.53-1.82-2.59-3.67-5.41-4-12.65-.55-16.55-2.65-19-4.39l-3.44-2.15c-.47,0-1.54-1.81-.72-3.32,2.54-3.56,4.08-8,18.46-10.51,5.57-.88,10-5,15.47-7.33l12.46-3.7c4.7-.27,8.75-2.56,40.34-10.53a11.45,11.45,0,0,1,3.73-.68c2.35-.12,4.2-.7,6.23,2.08a.46.46,0,0,1,.49.45c1.46.89,2.86.82,3.43,2.71a3.64,3.64,0,0,1-.77,3.4c-1.8,1.53-1.26,2.95-.7,4.84.83,7.17-4.66,9.85-9.25,11.53l-3.66,1.64-1.76,2A15.1,15.1,0,0,0,793,733c2,2.78,3.59,6.06,6.06,8.82a117.61,117.61,0,0,1,7.64,13.07c2.19,6.62,4.81,12.74,7,19.84A259.94,259.94,0,0,0,821,801.26q4,11.11,7.88,22.23c1.69,7.13,4.21,12.79,7.22,19.38a13,13,0,0,0,1.52,3.78c1,1.88,2.4,3.26,2.91,4.68,1.43,1.86,1.51,3.78,2.5,5.66,1.33-.54,1.29-1.5,1.73-2,4.55-10.28,8.74-19.09,12-28.34,1.69-3.43,3.42-5.89,4.2-9.76q4.07-7.35,8.17-14.7c3.86-7.82,6.82-15.6,11.2-22.94,1.71-4.37,4.36-8.3,6.08-12.67,2.6-5.84,5.71-10.73,8.35-16.08,2.22-3.9,4.9-7.81,7.6-11.72a45.45,45.45,0,0,1,4.46-8.27c.43-1.45-.52-2.39-2.4-2.82-.47,0-.94-.46-1.87,0l-5.25-4.67a3.22,3.22,0,0,1-2-4.27,4.77,4.77,0,0,0,1.81-2.45c5.13-.61,9.32-1.67,13-4.64a13,13,0,0,0,4.16-2.49,122,122,0,0,1,13.08-2.66l8.91-.15a59.19,59.19,0,0,1,13.13-.18c2.35.45,4.69-.54,7.5-.56,3.73-2.44,8,.89,12.68,1.81C972.91,709.39,974.8,712.26,977.15,714.65Z" />
    <path
        class="cls-1"
        d="M1307.8,727.31c-.9,5.23-2.57,8.46-6.1,11.55a4.67,4.67,0,0,1-4.27.62c-4.65-.37-9.34-.25-13.5-1a7.73,7.73,0,0,0-3.29.23c-2.33-.17-2.86.75-2.22,4.65.25,2.91.07,5.3.25,9.17-.18,2.39.5,5.81-.21,9.13-1.78,11.42-2.67,23.39-4.06,35.8q-2.28,12.1-4.55,24.21c-3.22,12.76-4.72,27.09-8,41.29-1.45,7.6-1.56,15.29-3.48,23.33.07,5.3.17,10.12-1.48,14.33a93,93,0,0,0,.13,10.6c-1.06,8.59-2.53,16.66-3.21,26.24l-1,13.41c.67,9.19-1.3,18.2-2,27.77-.34,4.79-1.12,9.55-1.1,15.32a71.12,71.12,0,0,1-1.08,9.07l-.27,3.83c-.57,1.88,1.46,4,3.65,3.63,3.89.28,7.35.54,11.09,2.75,3.63,3.65,4,4.64,4.48,9.49a7.86,7.86,0,0,1-.69,3.32c-.93.89-1.83,1.3-2.41,3.18a11.37,11.37,0,0,1-5.73,1.49c-8.63-.16-16.93,1.17-25.52.59-2.12-.62-5.16-.35-7.77,0-3.44-.22-6.14,1.53-9.57,1.31-2.64.8-6-.37-8.5-2a11.16,11.16,0,0,0-5-2.22,7.36,7.36,0,0,1-3.94-6.48l-1.07-3.91c2.14-7.09,1.83-24.42,4.25-28.61.55-1.89.66-3.81,1.18-5.22.5-8.63.62-18.24,1.59-27.32.77-5.73,1.11-11.48,1.44-17.23,1.47-10,2-19.6,3.51-29.61,1.17-12.43,4-21.89,4.24-33.89,1-10,3.5-21,4.59-31.47-.11-5.78.66-11,1.49-17.22,1.62-4.23,1.91-9,2.66-13.79.51-.93-.34-1.94-1.68-2.51-2.94,3.19-5.9,6.86-8.37,10.08-4,5.54-7,11.14-10.52,16.71-.93.43-1.94,2.3-2.42,2.75a2.9,2.9,0,0,0-1,2.35c-5.12,10.78-6.71,15-13.22,27.66-.47.46-.5.93-.95.91-1.17,5.23-4.95,8.88-5.21,14.16a15.09,15.09,0,0,1-2.38,2.76,22.33,22.33,0,0,1-3,5.62c-2.42,3.73-4.31,6-7.94,7.31l-3.63,1.27c-.45,0-.42-.5-.42-.5-.89,0-12.37-2.95-12.77-3.92a4.29,4.29,0,0,1-1.32-.54c-6.2-1.22-9.56-6.63-12-12.49-3.36-5.89-5.84-11.75-8.35-17.12-3.77-7.82-8-16.61-10.86-25.83a10.42,10.42,0,0,0-1.64-5.34,11.5,11.5,0,0,0-3-6.82,19.5,19.5,0,0,1-2.08-6.31,7.09,7.09,0,0,0-.82-2.91,32.94,32.94,0,0,0-2.93-8.73,14.84,14.84,0,0,1-3.27,2.79c-.18,6.24-1.24,11.49-2.32,17.7a33.63,33.63,0,0,0,.28,6.25l-.55,3.35a249,249,0,0,0-3.42,25.84c-.07,2.4-1.47,4.28-1.55,7.64-.06,2.4.28,6.25-.25,9.12-1.18,10.53-2.8,21.06-4.83,31.09a60.3,60.3,0,0,1-1.71,14.84c.39,1.93-.54,3.83-1.05,6.7-1.11,9.1-1.39,20.13-2.51,30.19-.18,7.2-.37,14.88-3.13,21.05-.45.47,0,1.44-.06,2.4.33,4.33-1.08,8.62-2,12-.92,2.38-1.84,4.76-1.89,6.68.38,2.41.79,3.38,2.08,3.41.84,1,1.27,1,1.7,1,4.35-1.33,8.62.7,12.46,2.24,1.28.52,2.57.55,3.42,1.06a18.63,18.63,0,0,1,2.71,10.65c-2.68,3.28-5.32,5.61-9.19,6-5.59.33-10.77,1.64-17.18.54-.42-.49-1.28-.51-2.14-.53-2.58.43-4.72-.1-7.71-.64-7.7-1.11-14.52-4.58-21.37-6.59q-7.29-1.78-14.59-3.52c-1.71-1-3-1.47-4.27-4.36-3,0-3.87-.51-4.73-2-2.15-1-2.14-3.37-.84-3.85.87-1,1.73-.95,2.18-2.87a14.73,14.73,0,0,0,3.9-1.89c1.74-1.91,4.34-2.36,6.93-1.86.43,0,.88-1,1.31-.95,0-.32,0-.64,0-1,.52-8.16.17-16.32,1.12-24,.49-5.28,1-9.59,1-13.91,0-1.44.46-1.91.47-2.88-1.67-7.22.59-14.39,1.54-20.63.51-6.23,2.35-12.94,2.87-19.17a34.05,34.05,0,0,0,.56-9.6,19.47,19.47,0,0,1-.39-4.8c1.82-3.82,1.43-7.66,1-12-.4-3.84.54-7.67.58-11,0-1.92.48-2.88.5-4.32a47.1,47.1,0,0,1-.35-7.69q.84-13.67,1.69-27.34a49,49,0,0,1,2.36-7.65,32.32,32.32,0,0,0,1.11-14.87l0-2.88q6.14-33.52,12.49-67c2.39-4.28,2-9.57,3.51-15.3-1.36-1.95-2.26-3.88-5-4.41-12.55-1.64-16.25-4.06-18.56-6l-3.24-2.44c-.47,0-1.38-1.93-.43-3.36,2.84-3.32,4.75-7.65,19.28-8.88,5.62-.39,10.37-4.15,16-6l12.72-2.61c4.7.14,8.93-1.79,41.08-7a11.4,11.4,0,0,1,3.78-.35c2.35.08,4.25-.33,6,2.61a.46.46,0,0,1,.45.5c1.37,1,2.78,1.06,3.18,3a3.64,3.64,0,0,1-1.06,3.32c-1.93,1.37-1.51,2.83-1.11,4.76.2,7.21-5.49,9.41-10.21,10.69l-3.78,1.31-1.93,1.86a15.07,15.07,0,0,0,3.17,3c1.77,2.94,3.05,6.35,5.28,9.3a118,118,0,0,1,6.49,13.68c1.61,6.79,3.69,13.11,5.26,20.37a259.79,259.79,0,0,0,4.93,27.09q3,11.41,5.93,22.82c1.07,7.25,3.09,13.1,5.52,19.93a13.07,13.07,0,0,0,1.19,3.9c.82,2,2.11,3.46,2.5,4.92,1.27,2,1.18,3.9,2,5.86,1.37-.42,1.42-1.38,1.89-1.84,5.42-9.84,10.36-18.26,14.44-27.19,2-3.27,3.92-5.57,5-9.36q4.69-7,9.41-13.94c4.52-7.45,8.14-15,13.14-21.88,2.08-4.21,5.06-7.89,7.15-12.1,3.1-5.59,6.62-10.2,9.71-15.3,2.55-3.7,5.56-7.36,8.59-11a45.39,45.39,0,0,1,5.16-7.85c.56-1.41-.31-2.42-2.15-3-.47,0-.9-.54-1.86-.12l-4.83-5.11a3.22,3.22,0,0,1-1.61-4.43,4.77,4.77,0,0,0,2-2.28c5.17-.17,9.43-.86,13.36-3.5a13,13,0,0,0,4.37-2.12,121.9,121.9,0,0,1,13.27-1.52l8.9.62a59.16,59.16,0,0,1,13.11,1c2.3.65,4.72-.13,7.53.09,3.93-2.11,7.89,1.57,12.49,2.9C1304,721.71,1305.66,724.73,1307.8,727.31Z" />
    <path
        class="cls-1"
        d="M1562,766.36c-2.14,1.62-4.91,1.21-7.76,1.27a29.84,29.84,0,0,1-3.38.47,12.19,12.19,0,0,1-9.27,2,6.71,6.71,0,0,0-7,5.79c-1.6,4.62-3.73,9.65-4.47,14.88-.87,2.79-1.34,6.11-3.44,7.75-.53.41-.2,1.42-.8,2.31-3.11,8.77-6.14,17.07-8.71,25.44-1.19,5.16-3.8,10.62-5.44,15.72q-6.2,14.65-12.34,29.31c-1.42,3.68-3.22,6.83-4.19,10.57,0,3.39-1.1,4.69-2.38,7.43-3.4,8.26-5.51,17.17-9.65,24.37-1.08,1.31-1.4,3.69-1.65,5.59-2.29,7-6,14.22-9.11,21.07-2.08,5.54-4.59,11-7.16,17-3.26,7.8-7.93,16.39-12,24.1-3.16,7.34-7.24,15-11.92,20.75-1.66,2.69-4.44,3.8-5.66,6.55-.85,3.28-3.31,5.39-4.46,7.67-3.06,3.49-5.37,8-8.9,12a95,95,0,0,1-9.86,9.45,9.35,9.35,0,0,1-3.71,2c-5.4,5.16-11.94,9.24-19.79,9.8-2.19.24-3.64,1.53-5.35,1.34a21.21,21.21,0,0,1-7.75-.37c-4.65-1-8.4-2.35-13.06-3.32l-3.7-1.83c-2.52-.75-5.32-3-7.37-4.14l-3.19-7.08a33.63,33.63,0,0,1-3-5.12q-1.63-7.64-3.28-15.28c.53-.91.33-3.34.47-4.78a17.5,17.5,0,0,1,1.47-10.47,1.57,1.57,0,0,0,.19-1.91c-.68-2-.54-3.43.13-5.77a6.64,6.64,0,0,0,.72-2.82c-.36-5.34,2.54-8,5.83-10a1.53,1.53,0,0,0,1.36-.35c3.88-3.47,8.59-2,12.52-1.62,3.06.32,5.09,2,8.23,5.69,2.26,3.62,3.59,7.63,2.31,11.35-.36,3.34.2,6.3-1.73,8l-.15,1.43c.66,2-.79,3.3-1.43,5.16-.05.48-.48.43-.53.91,1.45,6.91-2.41,10.36-5.07,14.91l-.1,1-.48.43c6.06,4.5,12.43,5.67,19.12-15.33,3.75-10.21,7.85-19.42,11.65-29.62q2.77-6.93,5.55-13.87c1.15-2.29,1.47-5.15,2.18-7.48.16-1.43.27-2.38,1.26-3.24,2.68-7.91,4-15.49,7.09-22.86.17-1.43.77-2.81.94-4.24l-.78-4.92c-2-2.16-2.56-5.12-3.56-8.14a10.1,10.1,0,0,0-2.13-5.07,114.48,114.48,0,0,1-6-15.16l-2.34-7.5c-1.57-2.11-7.54-18.21-8.49-22.17-.79-5.4-2.94-10.94-4.29-15.42a37.08,37.08,0,0,1-1.11-6.88q-1.71-5.49-3.44-11c-.87-4.92-2.75-9-4-14.41-2.1-6.49-3.81-12.45-5.48-18.89l-1.72-6a31.6,31.6,0,0,1-.59-3.44c-2.55-7-3.23-14.31-4.79-22.18a84.26,84.26,0,0,1-.83-10.69l-3.9-8.09c-.37-1-1.17-2.52-2.09-2.61l-7-.66c-1.3-1.09-2.57-2.65-5.36-2.91s-4.43-2.82-7-5.46l4-3c1.53-1.31,2.13-2.7,3.61-3.53,1.4.13,2-.79,2.89-.7,3.22.78,5.22-.48,8.54-.65,4.29-.56,8.5-.15,12.74-.22l12.88,3.22c2.7,1.24,5.4,2.48,7.78,2.25a11,11,0,0,1,4.1,1.39c1.71,1.63,4.14.92,6.52.69a16.88,16.88,0,0,0,8.29-2.49,7.49,7.49,0,0,1,3.47-1.55c3.89-1,6.59.24,9.58,3a22.16,22.16,0,0,1,4.12,5.3c-.32,2.86-1.17,6.15-1.14,10a22.18,22.18,0,0,1-9.46,4.74c-7.17,1.14-13.65.43-21-.83l-.2,1.91,1,3.49c2,3.59,2,7.93,3,11.42,2,7.46,4.45,15,5.56,21.85a78.64,78.64,0,0,1,3.13,9.52c2.91,11.43,6.65,23.44,10.5,34,1.62,6,4.75,10.69,5.83,17.1,1.82,4.08,3.12,8.58,4.81,13.61.67,2,2,2.65,3.71,3.34.56-.9.68-1.85,1.18-2.28,1.18-2.28,1.92-4.61,3.44-5.87,2.15-2.64,2.49-5.5,3.46-9.74a7.48,7.48,0,0,1,.85-3.28c2-5.56,5.12-12,7.58-17,1.2-2.27,2.46-5,2.36-7.93.75-2.33,2.47-5,3.67-7.29a143.9,143.9,0,0,0,10.5-20.95c2.49-5,5.91-9.9,8-15,1.81-3.16,2.75-6.91,4.63-10.54l4.25-3.81a32.87,32.87,0,0,0,4.29-7.67,31.49,31.49,0,0,0-4.39-2.5,46.22,46.22,0,0,0-6.54-4.22c-4.43-9.75,1.55-8.52,4.87-8.57,1.4.18,1.92-.24,9.68-1.66a35.11,35.11,0,0,0,7,.44,19.66,19.66,0,0,0,5.25-.27,9,9,0,0,1,3.32,0,12.55,12.55,0,0,1,7.32,2c4.86,2.6,10.31,4.32,15.56,4.09l5.58.79c5.78-.63,13-1.53,18.24-4.64,9.29-4.95,18.78,1.83,18.89,13.5A12.33,12.33,0,0,1,1562,766.36Z" />
    <path
        class="cls-1"
        d="M1581.42,775.63c3.15-11.17,6-20.44,8.37-29.3a20,20,0,0,1,5.42-1.09c1.4.22,6.68,3,8.08,3.23,1.86.3,3.34,3,2.11,4.71.24,1.5-3.57,28.11-6.33,33.5-2.53,4-5.59,5.43-10.42,3.2-1.38-.22-3.07-1.46-4.69-3.17A41.66,41.66,0,0,1,1581.42,775.63Z" />
    <path
        class="cls-1"
        d="M1636.14,979c4.7-3.55,11.71-2.27,17.05-1.78,5.43,0,10.51,4.39,12.76,9.21,1.91,4.27,2.33,6.79,2.05,10.65.5,4.49,1.69,10.09-.08,14.64-.18.94.42,2.52.24,3.47.58,4-.23,8.26-1.47,12.43a72,72,0,0,0-.85,9.12c-.2,3.38-1.17,6.13-.51,9.68.16,1.5-.29,13.14-.14,14.64a54.45,54.45,0,0,0,11.2,19.78c3.36,3.11,4.54,3.83,7.47,2.45,6-1.26,11.34-3.6,13.33-9.08a14.43,14.43,0,0,1,2.75-4.83c1.14-1.24,8.45-2.2,10.57-12.54.67-3.29,2.87-5.29,4.31-7.94.72-1.32,1-2.73,1.63-3.59,1.78-6.5,3.24-13.55,4.5-19.66,1-4.7-6.41-28.26-5.82-33.53-.7-5.53-1.06-10.5-1.43-15.47-1.59-5.71-1.53-10.59-3.48-16.85q-3-9.16-6-18.32c.63-.86,0-2.44-.24-3.47-3.23-7-3.63-14.41-6.1-20.75-2.29-7.29-4.14-14.49-7-21.39-1.7-3.26-3.23-7.45-2.07-11.14a21.87,21.87,0,0,1-2.52-3.9c-3.23-5-7.43-30.2-7.2-34.06.63-.86.44-2.36.16-3.39-2-32.58-.76-39.67,2.76-45.86,2.16-4,3.66-9.58,7-12.37.64-.86.72-1.33,1.27-1.72,2.14-6.44,7.64-10.31,14.55-13.89a33.09,33.09,0,0,1,12.21-1.11c6.67.29,15.2,1,22.7,2a128,128,0,0,1,18.61,5.67c8.14,2.63,15.23,8,22.68,11.52,6.14,5.21,11.63,8.82,17.73,14.06.72,1.14,2.46,2,2.71,3,5.73,4.67,9.45,11.87,13,17.56,1.52,1.81,1.21,3.22,1.81,4.82a19,19,0,0,0,2.91,8.51,3.89,3.89,0,0,1,1.76,2.85c.39,2.55,0,6.4.85,9a14.19,14.19,0,0,1-5.19,12.61c-8.44,7.94-25.12,15.11-28.67,11.9q-4.53-4.17-9.09-8.33c-1.66-3.3,4.75-20.1,4-23.2-.41-2.54,3.7-13,3.19-15-.16-1.51-1.59-3.77-2.66-5.47a40.42,40.42,0,0,0-10.81-17c-5-3.5-8.71-4.25-13.06-1.71-6.57,4.05-11.47,9.43-13.81,16.31a80.09,80.09,0,0,0-2.44,9.79,7.62,7.62,0,0,1-1.67,3.58,22.66,22.66,0,0,1-2.91,12.15,15.78,15.78,0,0,0-.32,6.3c.08,2-.21,3.39,0,4.89-1.8,8.94-1.43,18.81-1.8,27.55.7,10.43,5.09,11.81,5.3,22.14a49.4,49.4,0,0,0,.69,8c.47,4.51,1.13,8.07,1.24,12-.29,1.41,1,4.13,1.15,5.63,1.44,4.22.91,9,2.68,13.8.45,8.92,1.32,17.93,2.07,27.41.85,9,1.25,17.93,2.4,27.5a110,110,0,0,1,0,27.5c-1.08,7.13-1.53,13.42-2.84,19.52-1.69,1.6-.61,2.82-.48,4.32a71.15,71.15,0,0,1-1.06,9.1c-1.66,3.57-3,7.7-5.29,12.12-.2.94-5.93,11-6.55,11.85a8.34,8.34,0,0,0-3.55,4.15c-.93,2.26-3.12,4.25-6.49,5.5a6.08,6.08,0,0,0-2,1.05c-.3,1.41-.4,1.88-.92,2.26-3.26.78-5.68,1.75-8,2.25a26.41,26.41,0,0,1-14.19,2.46c-1.27-.26-2.63,0-3.48-.22-3.11,2.31-7.86,1.84-11.43,2.1-4,.18-8,.36-11.93-1.88-.75-.64-2.12-.42-3-.58-2.3.53-7.1-1.88-9.88-3.39-1.51-1.27-4.81-2.39-6.84-3.27-4.15-1.28-8.79-4.6-10.63-8.85-4.39-4.73-6.92-10.08-10.41-15.11a8.18,8.18,0,0,1-1.27-7.55,3.3,3.3,0,0,0,.52-2.83c-2.14-2.83-2.14-5.27-2.05-8.18a21.78,21.78,0,0,0-2.32-9.2c1.37-5.12-3.3-11.33-1.34-17.31,1.55-1.19-.19-3.93-.72-6-1.32-5.11-2.65-10.22.44-15,0,0,.87.16,1-.32-2-3.77,3.44-6.7,2.89-11.19-.27-1,1.29-2.21,1.46-3.15C1633.65,985.36,1634.24,982.05,1636.14,979Z" />
    <path
        class="cls-1"
        d="M741.16,1119.56c6.18,2.54,11.07,8.17,16.25,12.94,2,1.57,2.18,4.55,2.36,7.11-.1,3.85-.15,8.56-1.35,12.5-2,13.4-3.71,25.92-6.83,38.56a289.66,289.66,0,0,1-11.75,33c-1.77,5.27-3.11,11.37-6.26,17.18q-4.66,9.57-9.26,19.16c-8.24,17.8-16.67,35.67-24.13,54.78a22,22,0,0,0-2.21,14.34,163.38,163.38,0,0,0,6,38.86c1.39,3.73,2.47,7.91,4.53,11.58,5.28,8.52,7.48,10,15.15,6.8,3.29-2,6-3.08,7.51-5.35,6.07-6.08,12.94-11.33,17.22-18.94,11.58-20.6,29.43-51.79,38.32-74.58.54-2.6,1.82-4.82,2.75-7,2.59-4,5.69-5.91,9.32-4.85,4,1,4.06,2.32,4.62,5.71a14.46,14.46,0,0,1,.91,3.37,4.9,4.9,0,0,1,.43,1.26c-4.8,9.26-8.67,32.58-13,42.25a294.72,294.72,0,0,1-27.18,51q-6.73,9.69-13.37,19.41c-8.2,9.62-17.76,13.83-29.27,11.84l-4.54-.88c-6.55-.28-12.39-4-17.13-10.43-16.12-20.32-8.83-12.87-18.83-33.33-20.63-45.53-24-96.2-24.44-118.89.34-10.76,3.31-20.92,4-32.14,2-9.63,4.67-19.33,7.37-29.45,3.3-15.33,9.84-28.38,18.08-40.27,6-7.4,11.29-15.58,18.63-21.77,1.68-2.28,5-3.42,6.68-5.27,5.75-3,10.94-3.89,16-2.14C732.44,1118.07,736.6,1118.61,741.16,1119.56Zm-25.85,49.54c-4.31,5.92-6.15,14.64-8,22.94-6.74,19.85-10,40.28-10.67,64.34a234,234,0,0,0,16.74-31.88,398.07,398.07,0,0,0,22-68.55,7.62,7.62,0,0,0,.81-3.91c-.4-.4-.47-1.25-.9-2.07-.47-1.25-2-1.56-1.91-.71A87.25,87.25,0,0,0,715.31,1169.1Z" />
    <path
        class="cls-1"
        d="M805.17,1262.4c7.62,1.7,7.81,18.36,4.13,28.39s-3.22,29.68-3.27,40.79c.17,3,0,18.38.57,21.33.08,1.28.87,2.94.92,3.79,1.83,1.6,3.51.65,4.5-.26,14.44-14.93,22-24.69,27.55-33.51,7.2-9.76,22.23-37.74,27.86-49.48.63-2.16,2.69-3.95,3.67-6.55,4.29.27,1.48,1.23,4.8,4.52,3.34,3.72,3.15,8.42,1.95,14.44-.94,4.3-12.57,32.07-15.16,36.46-7.85,14.83-24.87,45.07-39,56.54-1.67.94-3.32,2.32-5,2.41-10.66,6.59-15.95,3.93-23.83-5.84-20-25.21-16.47-57.92-12.58-97.09.68-.47.24-1.73.22-2.15.27-1.3.9-2.62,1.14-4.35a36.46,36.46,0,0,1,1.7-7c1.12-4.78,4.26-6.26,7.8-6.9C797.42,1258.58,800.81,1261.37,805.17,1262.4Zm-2.23-38.33c.92,3.36,2.53,6.26,3.81,9.61.84,2.09-.48,4.3-2.22,5.26a11.48,11.48,0,0,1-5.46-1,16.87,16.87,0,0,1-6.66-8.58c-.93-3.36-2.2-6.27-2.41-9.68a7.53,7.53,0,0,1,8.23-1.78C800.45,1218.65,801.68,1221.15,802.94,1224.07Z" />
    <path
        class="cls-1"
        d="M1051.24,1093.46a67,67,0,0,1,2.65,21l-.22,13.23c-.49,6.82-1,14.06-1.42,18.32,24.42-3,39.29-5.09,42.28-5.87,6-1.54,10.95-6.92,14.5-13.21a86.49,86.49,0,0,0,8-16.8c1.27-4.23,4.67-5,7.54-1.86a39.62,39.62,0,0,1,9.61,21.29,10.65,10.65,0,0,1-1,5.94c-2.43,5-5.22,10-10.14,13.27-9.45,5.62-18.84,11.28-29.56,13.54-8.15,1.88-28.78,4.35-45.3,5.82-1.23,8.09-2.8,15.75-3.65,23.84-2.87,22.15-5.34,44.73-9.54,66.86-1.13,5.11-1.55,10.22-2.31,15.33-1.21,12.79-2.41,25.57-3.24,38.37a146.77,146.77,0,0,0,3.73,41,50.67,50.67,0,0,0,2.66,9c2.34,6,5.08,6.89,9.29,3.12,5.25-4.61,9.17-10.94,14.48-16s9.34-14.31,16.18-22.26l1.09-1.68c34.09-41.75,36.31-53.93,46.76-59.12,17.17-8.69,10.67,6.82-6,36.49a15.09,15.09,0,0,0-3.31,3.72q-8.1,14.43-16.06,28.9a8.92,8.92,0,0,1-1.88,4.21c-8.1,13.84-16.45,27.68-27,39.38-1.07,1.26-13.39,14.18-31.2,18.63a12.82,12.82,0,0,1-5.48,1.21c-18.08-1.92-32.38-10.46-41-31.78a127.28,127.28,0,0,1-9.13-37.09q-5.19,10.48-10.32,21a9,9,0,0,1-1.7,4.28c-7.51,14.14-15.26,28.3-25.33,40.41-1,1.3-2.71,1.75-4.05,3.06-1.35.87-3.05,1.34-4.05,2.63-6.35,7.37-14.47,9.68-22.18,14.15a12.72,12.72,0,0,1-5.4,1.42c-18-1.21-32.59-9.19-42-30.15-9-19.7-12.47-40.89-11.33-63.15a756.49,756.49,0,0,1,9.65-84.1c2.66-14.62,5-29.65,8.09-44.28,1-3.45,1.21-6.87,1.82-10.31.23-3.85-1.69-6.34-5-6.22-6.21.23-12.43.48-18.22,2-9.06,2.09-18.05,5.51-26.65,8.93-4.67,1.52-8.55,4.29-12.36,7.91-1.73,1.8-3.83,3.2-5.56,5-3.85,2.78-7.5,2.56-11.75-1.45.65-1.32.55-3,1.2-4.35,1.72-1.81,3-4,5.14-5.86,10.78-9.6,21.71-18.3,35.47-22.79,3.63-1,6.85-2.88,10.49-3.89,4.72-1.49,9.44-3,14.19-4,2.91-1,5.85-1.08,9.13-2.05,9.86-2.49,9.56-.34,12.77-15,2.28-9.47,3.82-19.33,5.38-29.2.63-3.86,2-6.46,5.35-8.27a11.14,11.14,0,0,1,3.67-2.24c7.73-4.48,13.44-1.63,17,7.24a67.34,67.34,0,0,1,3.45,20.83q.15,6.61.3,13.22c.47,4.26,2,6.36,5.3,6.29q43.49-.91,87-.7,3.2-13,6.44-26c2.66-9.37,4.6-19.17,6.56-29,.78-3.83,2.3-6.38,5.7-8.05a11.22,11.22,0,0,1,3.78-2.09C1042.4,1081.38,1048,1084.45,1051.24,1093.46Zm-126.54,79.24c-5.49.12-7.29,1.87-8.23,8.29-1.24,9.42-2.47,18.84-3.31,28.67-2,22.24-3.56,44.9-6.86,67.19-.92,5.15-1.14,10.28-1.7,15.41-.7,12.82-1.39,25.65-1.72,38.46a147.56,147.56,0,0,0,5.32,40.82,51,51,0,0,0,3,8.88c2.57,5.91,5.32,6.69,9.35,2.75,5-4.81,8.69-11.29,13.77-16.51s8.72-14.67,15.21-22.87l1-1.72c15.37-20.7,25.84-37.39,33.21-49.36,2.73-24.76,6.95-48.66,12-72.55,2.18-10.24,4.32-20.48,11-49C993.57,1171.54,969.75,1171.38,924.71,1172.71Z" />
    <path
        class="cls-1"
        d="M1207.17,1116.59c5.78,3.35,9.86,9.6,14.34,15,1.74,1.83,1.54,4.81,1.37,7.36-.62,3.81-1.31,8.46-3,12.2-3.82,13-7.19,25.18-12,37.28a289.6,289.6,0,0,1-16.1,31.08c-2.47,5-4.62,10.84-8.53,16.18q-5.91,8.85-11.76,17.73c-10.56,16.53-21.33,33.09-31.3,51a22.06,22.06,0,0,0-4.13,13.91,163.5,163.5,0,0,0,.72,39.32c.87,3.88,1.37,8.18,2.92,12.09,4.08,9.16,6,10.95,14.08,8.79,3.53-1.53,6.32-2.24,8.16-4.28,6.83-5.2,14.35-9.48,19.62-16.44,14.25-18.85,36.16-47.33,48.05-68.71.89-2.5,2.46-4.52,3.68-6.58,3.11-3.62,6.44-5.09,9.89-3.54,3.81,1.57,3.71,2.85,3.8,6.28a14.47,14.47,0,0,1,.45,3.46,4.87,4.87,0,0,1,.26,1.3c-6,8.52-13,31.1-18.56,40.11a294.89,294.89,0,0,1-33.83,46.89q-8,8.69-15.87,17.42c-9.42,8.43-19.47,11.3-30.58,7.77l-4.38-1.49c-6.45-1.16-11.72-5.66-15.55-12.65-13.2-22.32-7-13.95-14.13-35.57-14.26-47.91-10.73-98.56-8.11-121.1,1.79-10.61,6.11-20.28,8.32-31.3,3.24-9.28,7.23-18.52,11.28-28.19,5.34-14.74,13.58-26.79,23.34-37.46,7-6.52,13.29-13.91,21.39-19,2-2,5.37-2.71,7.33-4.32,6.11-2.24,11.36-2.37,16.09,0C1198.73,1113.94,1202.78,1115,1207.17,1116.59Zm-32.31,45.59c-5.07,5.29-8.07,13.68-11,21.65-9.35,18.76-15.33,38.56-19.27,62.3a233.86,233.86,0,0,0,20.89-29.33,398.17,398.17,0,0,0,31-65,7.61,7.61,0,0,0,1.33-3.76c-.34-.45-.29-1.3-.61-2.17-.29-1.3-1.75-1.81-1.8-1A87.26,87.26,0,0,0,1174.87,1162.17Z" />
    <path
        class="cls-1"
        d="M1297.91,1274.6a43.3,43.3,0,0,1-8.46,10.37,95.63,95.63,0,0,1-22.87,21.57c-4.9,3.44-7.73,7.92-9,14.24-.1,5.56-2.5,17.77-2.59,23.33-.45,5.53.56,10.32,1.53,15.53l2.45,4.06c3.56,18.64,41.71-18.62,44.49-20.44,2.76-3.16,4.53-6.85,7.92-9.09a123.92,123.92,0,0,1,9.62-11.47c3.14-3.56,25.34-28.7,31.45-34.88a5.88,5.88,0,0,0,2.45-2.73c.26.88.61.93.61.92,8.63,3.1,8.93,3.58,7.71,11.16-2.58,13.45-15,18.91-31.09,44.25-7.95,8.6-16,18.94-24.3,28.84-3.08,6.55-9.22,9-13,12.46-3.7,2.25-15.17,14.35-44,8.14-5.73-1.75-9.26-5-12.31-10.39-6.13-10.31-9.81-21.7-12.81-33.47.18-2.55-.68-5.18-1.48-8.66-1.17-8.21.79-26,2.13-34.92.93-8.06,3.65-16.42,6.37-24.35a201.11,201.11,0,0,1,9.89-17.67c5.37-9.44,12.74-16.14,20.19-23.25,4.59-3.05,10.92-5.1,15.78-6.82,1.87-.7,4-.09,6.52.13C1308.14,1235.23,1313.23,1249.06,1297.91,1274.6Zm-18.23-21.33c-5.24,6.4-10.05,12.42-13.49,19.41-2.59,5.35-4.49,11.19-3.88,16.81.22,1.73,1.21,2.67,2.37,1.48l8.39-6.57c2.1-3.68,4.06-5.65,6.09-8.47a77.22,77.22,0,0,0,11.34-18.7c.9-2.06,2.32-5.79,1.91-9.25-.09-3-2.17-4-4.11-2.51A27.7,27.7,0,0,0,1279.68,1253.27Z" />
    <path
        class="cls-1"
        d="M419.12,1503.61c-1-1.28,4.93-8.75,8.59-9.92a27.59,27.59,0,0,0,5.44-2,13.5,13.5,0,0,1,5.82-2c11.82-3.12,14.75-4.11,18.29-3.77a56.8,56.8,0,0,0,9.09-1.1c1.58.21,3.08,0,5,.11,5.5.52,9.22,4.27,11.91,11.12l-1.82,5.17c.08.48-.51,1.55-.88,1.61-2.08,1.33-2.13,3.28-.9,6a4.41,4.41,0,0,1,.77,2.3c-.47,4,.92,7.64,1.93,11.36,1.84,4.07,2.27,8.87,3,13.13.88,5.21,1.11,11,1.71,16.75.68,6.22,2.25,13.25,2.93,19.47a4.14,4.14,0,0,0,1,1.77c1.9.17,2.75-1.44,3.25-3,2.9-7.3,5.9-14.13,9.21-21.49,1.29-3.62,3.77-6.94,5.81-10.68.29-.53,1-.65,1.32-1.19,1.77-.77,2.64-2.37,3.08-4.38,1.39-3.14,2.57-5.27,6.93-8.88l.52-1.54c17.36-20.21,28.66-21.82,32.19-20.89a29.24,29.24,0,0,0,6.78-.49c15-5.06,34.82,21.36,38.2,41.74.44,3.33.81,6.19,1.76,24.46q-.49,6.12-1,12.23A2.13,2.13,0,0,1,599,1581c-1.82,8.48-2.34,18.24-5.68,26-.89,1.57-3.95,11.2-5,11.83-1,1.1-5.78,13.41-7.64,15.62-1.29,1.16-1.38,3.11-2.59,4.74a5.89,5.89,0,0,1-3.08,3.84,10.15,10.15,0,0,0-2.51,5.22c-.43,2-1.5,4.58-4.05,4.48-1.44,2.63-11.81,12.93-13.84,13.74l-8.65,4.74c-2,1.28-4.43,1.66-6.31,3.43-7,6-13.52,5.59-15.63,5.93a7.31,7.31,0,0,1-7-.79c-.43-.42-.86-.83-1.21-.77-3.78,1.12-6.61-2.78-10.73-3.54-.35.06-.54,1.07-.73,2.07.24,1.42.14,2.9.3,3.85,3.24,12.59,5.35,24.9,8.06,36.61,1.29,7.57,3.55,14.49,5.18,22,2.3,9.35,4.67,19.17,6.2,28.16.3,3.84.87,7.16,1.43,10.47.58,1.36,1.08,2.25,2.18,2.55,1.52.72,3.29.91,4.8,1.62a14.15,14.15,0,0,1,5.74,7.32c.73,2.31,1,3.73-.15,5.38a3,3,0,0,0,0,1.95c-.46,3.49-2.32,4.77-4.59,5.64a42.73,42.73,0,0,1-4.46,2.22l-3.7.63a5.49,5.49,0,0,1-2.61.93,90.71,90.71,0,0,0-10.66,4.3l-8.46,3c-3.69.66-7.37,1.34-10.54,2.9a5.52,5.52,0,0,1-2.92,1,3.91,3.91,0,0,0-2.84,1.5c-1.41,1.73-3.68.69-6-.35-1.85-.63-3.24-4.28-2.59-6.35q3.22-5,6.47-10c1.51-1.26,2.34-2.39,2.49-5.34-.26-1.42-1.87-2.58-2.06-5.48.08-1.48-.61-3.3-1-5.19a5,5,0,0,0-1-3.71c-.85-.82-1.12-2.23-1.38-3.65a144.85,144.85,0,0,1-3.75-16.39c.17-1-.53-2.83-.7-3.77-3-10.19-4.64-21.11-6.66-32-1.49-8-3.42-16.45-4.57-24.54-1.85-9.91-2.9-19.48-4.74-29.39l-1.32-7.08c-.79-4.25-1.49-8-1.84-11.87a1.09,1.09,0,0,0-.26-1.42c-2.29-10.32-2.25-20.09-5-30.81-.44-2.36-.07-4.38-.87-6.67-1.14-6.13-2.19-11.8-3.69-17.87-.09-.47-.09-.47.27-.54-.34-3.84-1.76-7.49-2.74-10.72l-.7-3.77c.22-4.92-.66-9.64-1.71-15.31l-3-18a40.26,40.26,0,0,1-.86-6.68c-1.12-8.09-1.86-16.25-2.69-24.89a17.94,17.94,0,0,1-2.38-2.49,4.17,4.17,0,0,0-1.27-2.69c-2-.6-4.27-.18-6.31-.78-2.41-.53-4.17-1.66-6.67-2.65A25.67,25.67,0,0,1,419.12,1503.61Zm135.59,127.34a165.63,165.63,0,0,0,13.85-27.77q1.65-5.09,3.32-10.18c.16-1.48,1.76-3.16,1.49-5.06.32-3,1.79-5.59,2.41-9.07.32-3,.58-6.39,1.21-9.87a28.54,28.54,0,0,0,.69-8.34,32.75,32.75,0,0,1,.67-5.91c-.3-10.14-1.31-20.18-5.43-30.75-1.47-5.12-4.4-7.14-8.18-7.09a110.82,110.82,0,0,0-12.84,2.83,4,4,0,0,0-3.12,1.92c-3.12,1.92-5.43,4.21-8.84,6.66-3,2.4-5.78,6.7-8.73,9.59.07.47-.3.53-.59,1.06-1.18,2.12-3.17,3.89-4,6-.59,1.06-.73,2.54-1.32,3.61-1,1.12-1.39,3.13-2.34,4.26a13.39,13.39,0,0,0-2.55,5.26,44.27,44.27,0,0,1-3.34,4.91,5.28,5.28,0,0,1-1.45,2.66c-1.29,3.61-3.46,6.39-3.49,10.78-.21,1-1.15,2.13-1.35,3.14-2.52,2.85-3.79,6.46-4.69,10-.77,2.07-2,3.73-2.47,5.27-1.07,7-4.51,12.93-4.67,20.74-1.31,3.15-1.38,7.05-1,11.37.41,6.75,1.55,13.37,2.41,20.53.29,3.85.94,7.63,1.59,11.42,1.25,5.14,1.25,5.14,5.37,5.9,6,.93,11.14,1.53,15.7-1.65l2.12-.35a8.86,8.86,0,0,0,5.7-2.87q4.34-4.59,8.71-9.16c1-.64,2.05-.81,2.62-1.87Q548.4,1639.91,554.71,1630.95Z" />
    <path
        class="cls-1"
        d="M762.92,1474.06c5.85,2.44,9.27,8,11.15,13.13a41.91,41.91,0,0,0,2.69,6.06c1.39,3.75,2.82,8,3.09,11.81a66.47,66.47,0,0,0,3.78,11.28l1.51,5.67c.4,5.75.83,12-.17,18.78-.47,3.88-2.36,8.35-3.18,12.26-.23,1.94-.93,2.47-1.15,4.41-.65,6.3-4,10.88-6.16,15.86a6.68,6.68,0,0,1-1.31,2c-3.09,2.64-5.37,6.18-8.8,8.86-2.14.65-3.15,1.69-5.2,3.3-2.34,2.6-4.79,3.76-8.32,5a9.66,9.66,0,0,0-3,2.66c-1,.57-2.48.69-3.53,1.26-3.16,1.23-6.28,3-9.08,4.16a3.61,3.61,0,0,0,0,3.86c1.16.86,2.45,3.15,3.3,4.53s1.73,3.22,2.89,4.08c1.56,1.31,2.84,3.61,4.12,5.91l2.2,4.63c3.7,5.47,6.44,12.46,10.18,18.9,2.68,6.52,4.91,12.12,7.92,18.63a62.65,62.65,0,0,1,4.71,10.22c3.1,7.94,5.13,16,8.5,23.42,2.25,6.57,4.88,13.59,7.83,20.59l1.25,2.79c1.25,2.8,1,4.74,2.25,7.06.83,1.87,2.72,4.13,3.55,6,1.55,2.3,2.4,4.64,4.29,6.91,1.37,4.71,5.06,8.31,8.36,11.45.37.46,1.77.84,2.49,1.28-.26-3.83-2-14.78-3-19.52.59-1.48.9-2,2.28-2.08,1.25-2,3.63-2.65,5.26-4.2,1-.07,1.32-1,2-1.09l1.41.39c6.18-.87,6.19-.87,11.09,6.05.37.46.46,1.9,1.15,1.85,2.87,1.75,4.09,5.05,4.6,7.91-.18,2.89.3,5.27-1,6.79-.68,0-.26,1.46-.54,2.44-.6,1.48-.49,3.39-1.11,4.39l-.23,1.94c-.37,5.31-2.89,8.83-4.69,12.79a11,11,0,0,1-4.29,2.19c-6.54,4.26-11.49,1.23-15.08-1.42-.41-.94-.75-.91-1.12-1.37-1.05-.41-1.73-.36-2.1-.82-2.1-.82-4.86-1.1-6.73-3.38-1.53-2.3-4-3.08-5.52-5.38-4-3.55-6.55-9.63-10.3-13.67-.38-.45-.45-1.41-1.21-2.31l-.45-1.41c-3-3.14-5.06-7.31-6.78-11.51-1.57-2.28-2.52-5.58-3.37-7.44a309.17,309.17,0,0,1-12.54-29.32,95.46,95.46,0,0,1-5.76-14A301.49,301.49,0,0,0,736.34,1642a138,138,0,0,0-10.91-21.18c-1.38-3.25-4.11-5.4-5.82-8.14a15.73,15.73,0,0,0-9.76-7.26c-1.53-.82-2.92-.2-2.78,1.24,0,3.86.35,7.2-.4,10.65-.15,5.8,0,11.1.32,17.82.38,3.82,1.07,7.13,1,10-.75,6.83.22,13,0,18.33q.58,9.35,1.16,18.7c1,6.17.54,12.49.77,18.26.19,1.91-.06,2.9,0,3.86,1.86,8,1.93,15.73,2.06,23.92q0,5.31,0,10.61a70.53,70.53,0,0,1-.6,21.29l-.29,3.89a3.31,3.31,0,0,0,1,3.27,7.62,7.62,0,0,0,1.7,3.21,13.7,13.7,0,0,1,2.32,9.41c-1.65,7.41-5.39,10.68-10.83,10.77a112.69,112.69,0,0,0-18,3.41l-7.91,2.35-.34,0-8.69-1.4c-2.19-1.19-4.94-1.35-6.58-3.57a5,5,0,0,0-4.06-2.41c1.06-2.55,2.18-4.62,4.49-5.38a10,10,0,0,1,3.77-2.87c.73-2.51,3.44-2.82,5.08-3.5,2-.71,2.88-1.78,3.18-5.2-.11-1,.17-1.47-.27-2.38-.5-4.29-1.38-9-1.94-13.79l-.83-7.15c-.65-8.62-1.76-15.26-2.3-22.93-.55-4.77-.46-10.1-1.06-15.34,1-3.5.11-8.23.37-12.12-.58-8.15-.64-14.9-1.46-22.06a18.57,18.57,0,0,0-.36-6.24c.27-3.9-.27-8.66-.11-13.52-.29-5.76-1.35-11.92-1.29-17.73-.24-5.29-.83-10.53-.35-15.9a104.48,104.48,0,0,0-.46-10.57c-.14-7.72-1-15.35-1.24-24,.07-9.18-.63-18.77-.54-28-.59-8.63-.39-16.86-1-25.49-.79-3.78.42-6.32-.37-10.1-.79-7.16-.52-14.92-1.25-21.6a4.49,4.49,0,0,1,.16-2,2,2,0,0,0-2-1.23c-2.5,1.24-4.53,3.4-7.39,4.69a32,32,0,0,1-7.58,6.18,11.57,11.57,0,0,1-10.34,1.7,4.48,4.48,0,0,1-2.66-.17c-1.23-.82-1.77-2.2-2-4.11l.66-3.95c-.29-2.38.29-3.91,2-5.08,3.07-2.78,5-5.91,8.49-8.25,1-1.11,23.15-20,29.17-21.11,3.39-.36,4.74-1.95,7.56-4.17a1.94,1.94,0,0,1,2.54-1.23q7.2-2.19,14.42-4.34c1.09-.59,2.6-.73,3.3-1.28a75.13,75.13,0,0,0,10.15-1.45c3-.28,5.24-1,7.93-.73,7.6-.2,15.16-.86,23,1.86,1.51-.13,3.14,1.18,4.31,1.57,3.4-.28,6.38,3.82,9.4,3.58,2.49,2.69,5.64,4.37,8.46,6.57.49,1.41.6,2.84,1.42,3.74,0,0,0,.48-.34.51l0,.48A1.71,1.71,0,0,0,762.92,1474.06Zm-64.64,8.48c1.73,2.24,4.54,43,4.69,44.4,1.25,5.18.93,9.56,1,14.37.19,5.77,1.11,11.47.89,16.79-.37,0-.27,1-.23,1.47-.18,1.95.88,5.22.89,9.08.28,2.87.48,8.64,1.89,11.87,1.59,1.29,2.63.71,3.72.61,6.53-.63,12.6-2.15,17.38-6,7.37-3.55,14.19-9.44,20.73-14.8.36,0,.57-2,.9-2.48a68.65,68.65,0,0,0,9.71-21.49c1.54-4,1.94-8.34,3.42-13.27,0-.48.3-1-.48-1.41.52-2.93-.11-6.25-.7-9.09.3-5.8-1.29-11.94-3.6-17.54-1.83-4.19-4.37-7.84-6.14-11.07-1.2-.87-2.48-2.69-4.05-3.53-5.52-2.93-10.22-4.94-15.52-5-3.46-.67-7.59-.31-11.72.06-6.8.13-13.43,2.19-19.34,3.72C700.62,1479.43,698.75,1479.61,698.28,1482.55Z" />
    <path
        class="cls-1"
        d="M954.54,1455c6.22,15.28-3.46,23.08-8.63,26.53-1.88-.45-4.12.07-6.36.59-1.85,1-4.48.57-7.09,1.1-2.24,0-4.87-.38-7.49-.32-2.25.05-2.61.55-2.52,4.38-1,6.74.36,14.88-.58,22.1.11,4.32.59,9.11.3,12.48,0,1.92-.3,2.89-.27,3.85a91.79,91.79,0,0,0-.89,23.55,71.88,71.88,0,0,0-.54,7.7,42.26,42.26,0,0,0,.24,9.6,19.38,19.38,0,0,1-.25,4.33c-.88,8.19-1,16.35-1.18,24.52.11,18.25-.9,34.12-.79,51.4.07,15.84-.21,31.7-.12,47.55.13,4.8-.43,9.62.41,14.87-.32,1,.41,2.39.1,3.84a4.21,4.21,0,0,1-.27,2.89c.93,8.62.81,16.79,2.75,25.38,1.41,1.4,2.77.89,4.12.38a16.91,16.91,0,0,0,7.06-5.93c1.34-1.47,2.36-2,3-3.43,2-3.88,5.43-4,8.18-4,2.41,0,3.83,2.33,4.89,3.75a23.66,23.66,0,0,1,.83,8.63c-.33,1-.64,2.89-2,3.88a38.13,38.13,0,0,1-6.32,9.24c-2.29,4.85-5.67,5.88-9.73,6.93-2,1-4.74,1.07-7.11,1.62l-2.38.06c-6.49-.79-12.58.36-18.33,1.51-7.43,1.69-15-.43-22.83-.59-14.3.59-27.29,12.8-25.81-5.06-.34,0,0-1-.39-.94,2.63-2.06,3.63-2.59,5.34-2.67a2.8,2.8,0,0,0,2-.58c3.32-2.08,5.21-5.54,9-5.7,1.32-1,2.33-1.54,2.93-3.49-2.37-7.11-2-14.33-2.36-22.48.74-6.76.08-13.94.13-20.67q.11-9.38.23-18.75c.26-10.1.51-20.68,1.1-31.76.74-7.72.39-15.88,1.85-23.62a175.29,175.29,0,0,1,.32-18.27,13,13,0,0,1-.22-5.28c.18-4.33.75-8.2-.49-12q0-1.2-.1-2.39c.63-11.08,1.25-22.63.42-34.13.29-1.93.58-3.86.15-5.29.1-6.73-.17-13.45-.08-20.18,0-1,.29-1.93.25-2.89.76-8.68,1.53-17.36,1.19-26-.52-3.82-.32-8.15-.15-13.44.67-1.95,1-3.4-.6-5.74-2.62.1-4,2.56-6.24,3.13-2.66-.85-4.78,2.12-6.67,1.73-4.4,2.11-9.1-2.47-6.84-10.27a1.72,1.72,0,0,1-.86-2.36c1.1-.53,2.12-3,3.21-4,6.22-4.12,13.24-7.78,20.36-9,3-.11,4.83-2.1,7.9-.77l1.13,0c4.83-2.09,11.3-.86,18.5.36,5.32,1.28,11.38,2.56,17.05,3.39,3.79.87,6.78-.16,9.74-2.62,2.58-2.93,5.2-3.94,7-6.38,1.1-1.94,2.22-2.92,3.32-4.86a1.86,1.86,0,0,1,2.62-1.48c1.9.45,3.8,1.38,6.07,1.35A5.93,5.93,0,0,1,954.54,1455Z" />
    <path
        class="cls-1"
        d="M1021.35,1458.14c7.2-7.65,32.72-12.58,43.33,2.58,6.94,9.76,10.81,19.94,15.76,30.17l1.41,2.92c1.73,5.33,7.31,30,9,33.89,3.5,5.87,4.43,11.19,6.85,15.59a66.07,66.07,0,0,0,4.78,10.25c1.38,2.45,1.67,4.38,2.37,5.37q4.27,13.13,8.46,26.26c6.95,16.61,12.68,33.67,19.8,48.91.27,1.93.86,4.37,2.26,4.91,1,.53,1.49-1.37,1.16-1.87,1.18-9.55,2-19.13,3.93-29.12,1.93-17.21,2.81-34.95,4.74-51.67,1.16-8.59,2.72-17.65,4.27-26.22a146.43,146.43,0,0,1,1.87-22,3.86,3.86,0,0,1,.15-2.88c1-5.71,2.06-10.95,1.63-17.22-.58-3.4.82-8.61,1-12-.23-2.9.67-5.73.8-8.13-1.28-4.39-4.2-6.46-8-6.65-.4.46-1.13-.05-.73-.51-.33-1-.66-2,.09-1.92a6.65,6.65,0,0,1,3.14-2.25c6.18-2.58,10.85-4.74,17-5.84a148.13,148.13,0,0,1,14.87-1.07l3.78.23c2.71-.79,4.54.28,7.19.45,2.3-.33,3.81-.23,5.58,1.8,3.22,3.09,4.06,7.49,2.36,10.26-1.26,1.84-2.45,2.72-3.39,5.55-1.13-.07-2.6-.65-3.76-.24a68.93,68.93,0,0,0-8.59-1.5c-2.26-.14-3.07.78-3.59,3.15a90.07,90.07,0,0,0-2.68,13.31c.15,3.86.72,6.78-.2,9.61a52.66,52.66,0,0,1-.46,7.67c-.57,3.33-.8,7.17-1.74,10.48a13.51,13.51,0,0,1-.6,3.81c1,7.75-.17,15.38-1.33,22.52-2.77,9.45-3.35,19.52-4.28,29.08-1.09,12.44-2.57,25.34-4.31,36.77q-3.6,56.29-7.17,112.59c-1.28,4.25-1.82,7.59-1.32,11-.83,2.36-1.28,4.25-2.47,7.07a5.5,5.5,0,0,0-1.56,3.28,11.45,11.45,0,0,0,.23,8.19,15.23,15.23,0,0,1-.72,6.69c.21,2.42-.56,3.82-2.31,4.68l-1.36-.07c-1.73.39-2.59,3.7-4.93,2.62-2.6-2.54-5.67-2.7-8.52-7.17-1.61-2-3.45-6.42-5.37-9.39a15,15,0,0,0-1.92-3c-2.75-7.33-6-12.29-9.18-18.19-2.4-7.32-11.28-46.59-13.24-51.95a127.21,127.21,0,0,1-10.74-25.84q-2.56-8.26-5.15-16.5c-6.27-16-11.95-31.58-18.09-46.62-2.05-4.85-3.39-9.69-5.08-15-2.06-5.33-4.5-10.67-6.6-15-.72-.5-1.07-1.46-1.78-2.44-1.56,4.77-.93,9.58-1,13.42-.51,7.19-.67,14.87-1.54,22.05q.41,6.49.82,13c-.18,8.64-1.82,18.69-2.69,26.83a81.87,81.87,0,0,1-.72,18.71,96.3,96.3,0,0,0-.44,22.56c-1.19,6.7-1.64,12.45-.72,18.71.33,1,.67,1.45.31,1.93-1.17,6.22-.57,11.51.36,17.29a8.21,8.21,0,0,0-.4,2.87c-.87,9.1-.71,18.71-.9,28.31,0,1.44-.41,3.35,1.61,5.31a22.61,22.61,0,0,0,5.19-1.81c1.41-1.41,2.11-2.35,3.84-2.79a4.2,4.2,0,0,1,3.45-.4c1.73-.44,3.41,1,4.35,4.43.66,1,.61,2.89,1.28,3.39a38.8,38.8,0,0,1-3.29,8.08,6.14,6.14,0,0,1-2.15,3.79c-4.15,2.3-7.63,5.1-11.06,6.47-3.77,1.36-7.51.81-11.58.26-5.79.39-11.24.31-16.67-1.19a10.14,10.14,0,0,0-10.91,2.3c-1.71,1.43-4.1,2.86-5.47,4.77l-6.46,3.33c-1,.48-2,1-2.71.48-2,.48-3-2.4-2.71-4.32a50.15,50.15,0,0,1,5.81-13.91c1.71-1.44,2.4-3.35,4.12-5.27,2.41-3.35,3.12-6.7,1.42-10.55,0-1.44,0-2.88-.67-3.84-1.36-2.41-1.36-4.81.38-7.68-3.46-5.77,2.18-99.36,1.91-105.13.4-8.16,1.52-16.79,2.65-24.47,1.12-7.19,2.26-14.87,1.59-22.55.75-3.83.77-6.24,1.51-8.63a290.52,290.52,0,0,1,2.12-40.31c-.68-6.73-3.11-32.19-2.33-37.94a23.55,23.55,0,0,1,1.95-10.55c1.14-1.43,1.16-4.31,1.55-6.23a10.44,10.44,0,0,0-.34-4.8C1017.95,1459.55,1019.84,1458.6,1021.35,1458.14Z" />
    <path
        class="cls-1"
        d="M1271.49,1772.68c1.51,2.08,5.47.06,7.22-.24,1,.1,2.67-2.62,4.18-3.92,3.6-4.94,6.83-9.42,8.27-16.51,4.48-9.67,7.48-18,6.68-30.19-.41-9.22,2.71-15.64,7.43-23.34.21-1.91,1.6-1.76,3.26-4a4.9,4.9,0,0,0,5.2-2.32c5.59.62,9.13.55,12.81,2.42,3.56,2.83,5.13,4.47,5.55,6.93.13,1.95,2.63,7.56,2.34,9.95,0,0,.41,2.47.53,4.41-1.61,7.55-4.82,11-6,18.14,0,2.9-1.71,2.7-.91,4.73-2.11,8.94-7.1,19-11.67,25.7a125,125,0,0,0-13.09,15.43c-2.06,3.15-5,5.24-10.48,5.13-8.41,2-16.7-.31-25.57-.22l-1.73.31c-3.82-2.79-9.43-4.77-13.34-10.43-2-.19-2.92-1.71-5.25-2.41-1.18-2-4.07-4.22-5.35-9.15-7-10.25-10.31-15.83-14-29.62,0,0-1.37-4.45-1.17-6.84-1.82-11.71-2.63-23.33-3.46-35,.72-9.09,0-17.81.45-27.9-.54-11.12-.32-23.14,2-34.51,1.84-23.45,7.28-46.61,11.91-67.43,3.16-11.79,6.43-20.19,10.78-32.35,6.41-14.39,11.88-30.32,22.3-41.44,3.51-5.47,6.94-10,10.12-11.61,3.49-5,6.31-6.64,9.22-9.26a10.65,10.65,0,0,1,9.18-4.42c3.91,2.8,8.1,2.73,11.59,2.13l2.26.23c1.56-.32,3.9,2.82,5.83,2.54,13.46,2.37,25.75,12,34.69,26.07,0,2.9,2.42,5.12,2.57,7.07,2.23,9.93,4.87,16.05,4.83,25.72.92,14.14-6.36,49-18.37,64,.08,2.42-1.23,4.21-5.31,4.7-1.81-.21-3.88,2-5.33,1.81a5,5,0,0,0-3.21,2.54c-1.86.27-4.47-2.44-6.28-2.63a42.17,42.17,0,0,1-5.93-9.34,26.76,26.76,0,0,1-.11-5.81,183.3,183.3,0,0,1,9-21.72c2.45-2.14,4.08-6.79,7.28-8.85,3.1-4.48,5.39-11.47,6.3-16.2,1.55-7.07,1.15-13.4,1.22-20.64-.4-6.33-4.76-17.93-7.81-21.16-2.09-5.06-4.08-7.69-5.51-4.95-4.54,0-6.61,1.7-7.39,5.49l-2.44,1.67c-.82,4.26-3.07,11.26-6.16,15.77-3.34,6.89-6.79,11.36-9.9,16.36a125.3,125.3,0,0,0-12.41,31.57,200,200,0,0,1-9.32,28c-2.85,7-3.58,14.61-5.65,21.16-2.7,9.39-4.26,18.4-6.93,27.8-.8,4.74-.62,6.69-2.22,12.33q-2.19,12.09-3.58,27.15c.44,6.79-.31,11.06-.24,17.82-1.23,9.53-.34,18.77.07,25.56.67,7.78,1,11.67,1.23,16.51q.51,5.59,1,11.19a65.73,65.73,0,0,1,0,7.71C1265.73,1761.5,1269.16,1768.59,1271.49,1772.68Z" />
    <path
        class="cls-1"
        d="M1425.76,1504.57c-.85-2.06-1-4-1.5-5.55l.44-.42a6.34,6.34,0,0,0,6.07-2.54c2.1-4.07,5.61-4.53,9.35-4a24.24,24.24,0,0,0,8.51-.69c6.57-.48,12.78-1,19.14,0l7.71-.26a14.55,14.55,0,0,1,6.36,1c5.84,1.84,40,6.57,44.95,7a45.83,45.83,0,0,0,11.2,2c2-.14,3.82.19,5.48-.48a8.64,8.64,0,0,1,6.64,1.69,3.93,3.93,0,0,0,2.15.88c3.91-.26,7.21,2.79,10.4,6.32.37.07.66.61.94,1.15,1.24,3.65,2.85,7.38,2.05,11.62-.2,9.24-2.09,19.15-5.43,26.82a24.84,24.84,0,0,1-1,5.19c-1.08,3.7-1.61,6.53-4.06,9.49-1.36,1.21-2.17,3.5-2.61,5.86-2.18,1.55-4.73,1.07-6.83.19-.92-1.14-1.11-2.16-1.76-2.76l-2.49-2.9c-1.93-1.82-2.43-5.32-3.47-8-.2-1,.06-2.43-.5-3.51-1.78-2.76-1.27-5.59-.76-8.43,1.67-5.06,2.16-9.86,3-14.58a3.89,3.89,0,0,0-1.91-4.25c-1-.67-2.14-.87-3.54-1.61-8.73-2.53-17.14-2.53-26.12-3.56a1.9,1.9,0,0,0-1.56.22c-1.48-.25-2.38.57-2.41,3a25,25,0,0,1-.51,5.27c-.56,3.31-1,6.15-2.91,8.27-1,1.3-1.5,2.18-1,3.72.21,1,.34,2.49-.11,2.9-2.06,5.5-3,13.13-4.28,18.75-.92,3.25-2.21,6.44-4.27,7.56a12,12,0,0,1-.66,6.22c-.92,3.26-1.1,6.63-2.46,10.3q-2.32,10.56-4.62,21.13l-.31,1.9c-.16.95.48,1.54,1.12,2.13l.72.12c4.75.3,9.51.63,14.71.54a60.53,60.53,0,0,0,9-.87c3-.44,5.73-.94,8.12-3.93a7.39,7.39,0,0,1,7.08-2.15c1.63,1.27,3.35,2.07,5,3.34a5.08,5.08,0,0,1,2.64,3.89c.48,3.5.67,6.47,1.23,9.5a8.45,8.45,0,0,1-.78,4.25c-3,6.28-4.3,13.37-5.59,20.45a74.29,74.29,0,0,1-3.75,12.49,7.87,7.87,0,0,1-3.69,4.21c-2.11,1.57-4.06.24-5.22-1.43a56.8,56.8,0,0,1-5.4-10.72c.06-2.42.48-4.79.54-7.22l1.25-7.09c.06-2.42-1.12-4.1-2.9-4.41-1.15.29-2.86-.5-4-.21-8.19.52-15.29,1.26-23,1.44-2.58.06-4.32,1.72-5.1,6.45-1.81,6.51-3.68,13.5-5.76,19.49-1.17,7.1-3.47,14.51-5,21.56-2.45,8.35-4.19,16.83-6.35,25.72-3.08,10.2-4.24,21.68-7.8,32.78l-1.46,9c-1.61,5.58-2.45,10.79-4,16.37l-1.49,7.06a4.3,4.3,0,0,0,1.76,4.17c.94.64,2.56,1.39,3.32,1a87.11,87.11,0,0,0,26.9-4.24,7.18,7.18,0,0,1,3.89-2.25c3.13-1.89,6.78-4.66,10.27-6.48,3.06-1.41,5.45-4.88,6.55-9.07,1-5.67,3.32-8.67,4.86-13.27,1-1.77,2.66-2.93,4-2.68a4.12,4.12,0,0,1,1.89,1.32,22.32,22.32,0,0,0,2.92,5.41c.77,1.6.85,3.08,1.36,4.16a55.79,55.79,0,0,0,1.52,7.12,44.71,44.71,0,0,1,.81,8.94c.59.6.08,1.48-.1,2.42-1.46,2.17-2.67,4.88-4,6.57-.85.82-1.87.63-2.73,1.45-.09.47.33,2-.1,2.42a1.24,1.24,0,0,1-1.19.76c-1.7-.31-2.46,0-3.66,2.74.17,1-.68,1.83-1,1.77a50,50,0,0,1-21.13,10.84c-5.22,2-10,3.61-15.22,3.7-1.68-.29-3.53.37-5.29.56a220.55,220.55,0,0,1-29.38-4.3c-4.79-.27-9.36-1.95-13.6-3.57a79.48,79.48,0,0,0-24.51-2.17c-.67-.1-1.49.76-2.23,1.14l-4.85,2.7c-2-.76-1.21,1.28-3.1.05-15.59-1.68,4-19.31,5.17-19.63,4.41-1.8,4.54-5.18,8.49-6.07,1.36.19,2.45-.13,2.73-2-1.09-4.52,4.18-16.86,4-18.33.07-2.9,1-4.7,1-7.13,1-6.65,2.89-12.68,3.52-19.38a18.78,18.78,0,0,1,1.38-4.65,7.8,7.8,0,0,1,.41-2.85c-.91-3.53.55-6.23,1.1-10l1.66-9c2.36-11.3,4.37-22.65,6.53-34.95,1.82-7.5,3.57-14.52,4.68-22.12-.36-2.49-15.83-3.74-10.34-11.68-.51-1.53,2.13-2.12,1.26-3.7.43-.42.49-.9.85-.85.72.1,1.72.73,2.51.36a4.37,4.37,0,0,0,2.29-.64,24.19,24.19,0,0,1,4.42-2.75c2.29-.64,3.65-2.38,4.56-6.13s1.19-8.07,2.47-11.77c2.61-12.72,5-24,7.07-35.35l1.22-3.22c2.15-7,3.21-14.08,5.45-21.52a92.74,92.74,0,0,1,2.86-14.13l2.32-7.91c1.24-3.21-.71-5.45-2.7-4.77a10.19,10.19,0,0,1-3.78-.08l-3-.44c-2.16-.8-3.81-2.5-6-3.29C1430.43,1509.12,1428.24,1505.89,1425.76,1504.57Z" />
    <path
        class="cls-1"
        d="M580.43,1290.26c5.37-11.82,5.55-23.63.53-34.15-4.51-9.41-13.26-17.77-24.69-23.52-18.06-9.06-35.49-6.72-42.38,5.7a10.3,10.3,0,0,0-.79,7.65,18.26,18.26,0,1,0,35.19,5.07c5.61,3.06,22.43,14,14.57,31.27-6.31,13.87-17.29,23.65-30.48,27.18-14.46,3.9-30.84.34-44.91-9.75-10-7.14-19.87-14-30.29-19.39-11.49-5.91-23.37-10-33.46-13.26-13.12-4.23-25-6.72-35.37-7.45-11.22-.78-22.5,4.52-30,9.1-11.74,7.19-20,15.76-24.06,25l-.14.34c-7.06,15.83-3.41,31.9,10.34,45.21,19.61,19,39.26,16.09,51.11,7.08a38.76,38.76,0,0,0,10.42-12,32.25,32.25,0,0,0,4.11-19.21,18.87,18.87,0,0,0-1.34-5.9v0c-.27-.64-.52-1.27-.84-1.85s-.37-.9-.59-1.31a9.73,9.73,0,0,0-2.89-3.2,17.83,17.83,0,0,0-3.59-2.69,18.23,18.23,0,0,0-17.88,31.76c-7.31,4.69-16.52,2.56-25.49-6.12-7.52-7.28-9.39-15.31-5.59-23.89,6.09-13.79,24.22-23.42,35.13-22.65a132.68,132.68,0,0,1,31.54,6.44,206.6,206.6,0,0,1,30,12.49,226.29,226.29,0,0,1,27.5,17.4,79.72,79.72,0,0,0,29.3,12.64,66.5,66.5,0,0,0,31.86-.58c17.45-4.68,31.48-15.77,40.54-32.11.94-1.7,1.82-3.46,2.65-5.28" />
    <path
        class="cls-1"
        d="M1412.36,1290.26c-5.37-11.82-5.55-23.63-.53-34.15,4.51-9.41,13.26-17.77,24.69-23.52,18.06-9.06,35.49-6.72,42.38,5.7a10.3,10.3,0,0,1,.79,7.65,18.26,18.26,0,1,1-35.18,5.07c-5.61,3.06-22.43,14-14.57,31.27,6.31,13.87,17.29,23.65,30.48,27.18,14.46,3.9,30.84.34,44.91-9.75,10-7.14,19.87-14,30.29-19.39,11.49-5.91,23.37-10,33.46-13.26,13.12-4.23,25-6.72,35.37-7.45,11.22-.78,22.5,4.52,30,9.1,11.74,7.19,20,15.76,24.06,25l.14.34c7.06,15.83,3.41,31.9-10.34,45.21-19.61,19-39.26,16.09-51.11,7.08a38.76,38.76,0,0,1-10.42-12,32.25,32.25,0,0,1-4.11-19.21,18.87,18.87,0,0,1,1.34-5.9v0c.27-.64.52-1.27.84-1.85s.37-.9.59-1.31a9.73,9.73,0,0,1,2.89-3.2,17.82,17.82,0,0,1,3.59-2.69,18.23,18.23,0,0,1,17.88,31.76c7.31,4.69,16.52,2.56,25.49-6.12,7.52-7.28,9.39-15.31,5.59-23.89-6.09-13.79-24.22-23.42-35.13-22.65a132.68,132.68,0,0,0-31.54,6.44,206.59,206.59,0,0,0-30,12.49,226.28,226.28,0,0,0-27.5,17.4,79.72,79.72,0,0,1-29.3,12.64,66.5,66.5,0,0,1-31.86-.58c-17.45-4.68-31.48-15.77-40.54-32.11-.94-1.7-1.82-3.46-2.65-5.28" />
</svg>